<?xml version="1.0" encoding="utf-8"?>
<!-- Generator: Adobe Illustrator 25.3.1, SVG Export Plug-In . SVG Version: 6.00 Build 0)  -->
<svg version="1.1" id="Capa_1" xmlns="http://www.w3.org/2000/svg" xmlns:xlink="http://www.w3.org/1999/xlink" x="0px" y="0px"
	 viewBox="0 0 1280 1024" style="enable-background:new 0 0 1280 1024;" xml:space="preserve">
<style type="text/css">
	.st0{clip-path:url(#SVGID_2_);}
	.st1{clip-path:url(#SVGID_4_);}
	.st2{clip-path:url(#SVGID_6_);}
	.st3{clip-path:url(#SVGID_8_);}
	.st4{fill:none;}
	.st5{fill:#1E1E1C;}
	.st6{font-family:'Roboto-Regular', sans-serif;}
	.st7{font-size:30.4575px;}
	.st8{enable-background:new    ;}
</style>
<g>
	<g>
		<g>
			<defs>
				<circle id="SVGID_1_" cx="863.7" cy="227.6" r="173.7"/>
			</defs>
			<clipPath id="SVGID_2_">
				<use xlink:href="#SVGID_1_"  style="overflow:visible;"/>
			</clipPath>
			<g class="st0">
				
					<image style="overflow:visible;enable-background:new    ;" width="955" height="512" xlink:href="insectos.jpg"  transform="matrix(0.6798 0 0 0.6798 537.6371 54.0133)">
				</image>
			</g>
		</g>
	</g>
</g>
<g>
	<g>
		<g>
			<defs>
				<circle id="SVGID_3_" cx="873.3" cy="702.5" r="173.7"/>
			</defs>
			<clipPath id="SVGID_4_">
				<use xlink:href="#SVGID_3_"  style="overflow:visible;"/>
			</clipPath>
			<g transform="matrix(1 0 0 1 0 0)" class="st1">
				
					<image style="overflow:visible;enable-background:new    ;" width="600" height="401" xlink:href="flores.jpg"  transform="matrix(0.8859 0 0 0.8859 616.7626 528.9465)">
				</image>
			</g>
		</g>
	</g>
</g>
<g>
	<g>
		<g>
			<defs>
				<circle id="SVGID_5_" cx="423" cy="702.5" r="173.7"/>
			</defs>
			<clipPath id="SVGID_6_">
				<use xlink:href="#SVGID_5_"  style="overflow:visible;"/>
			</clipPath>
			<g class="st2">
				
					<image style="overflow:visible;enable-background:new    ;" width="600" height="400" xlink:href="hojas.jpg"  transform="matrix(0.9378 0 0 0.9378 226.3779 508.9334)">
				</image>
			</g>
		</g>
	</g>
</g>
<g>
	<g>
		<g>
			<defs>
				<circle id="SVGID_7_" cx="433.8" cy="227.6" r="173.7"/>
			</defs>
			<clipPath id="SVGID_8_">
				<use xlink:href="#SVGID_7_"  style="overflow:visible;"/>
			</clipPath>
			<g transform="matrix(1 0 0 1 0 -1.525879e-05)" class="st3">
				
					<image style="overflow:visible;enable-background:new    ;" width="500" height="259" xlink:href="frutas.jpg"  transform="matrix(1.4175 0 0 1.4175 177.5321 34.1409)">
				</image>
			</g>
		</g>
	</g>
</g>
<g>
	<rect x="695.3" y="434.1" class="st4" width="336.4" height="45.2"/>
	<text transform="matrix(1 0 0 1 736.3037 459.875)" class="st5 st6 st7">Insectívoro (insectos)</text>
</g>
<g>
	<rect x="699.7" y="905.7" class="st4" width="347.3" height="221.4"/>
	<text transform="matrix(1 0 0 1 835.4365 931.5082)" class="st5 st6 st7">Flores</text>
</g>
<g>
	<rect x="249.3" y="905.7" class="st4" width="362.1" height="221.4"/>
	<rect x="253.1" y="905.5" class="st4" width="339.7" height="101.5"/>
	<text transform="matrix(1 0 0 1 257.1051 931.5082)" class="st8"><tspan x="0" y="0" class="st5 st6 st7">Folívoro (hojas maduras </tspan><tspan x="96.5" y="36.5" class="st5 st6 st7">y jóvenes)</tspan></text>
</g>
<g>
	<rect x="252.7" y="434" class="st4" width="362.1" height="68.9"/>
	<text transform="matrix(1 0 0 1 330.9072 459.9492)" class="st5 st6 st7">Frugívoro (frutas)</text>
</g>
</svg>
