<?xml version="1.0" encoding="utf-8"?>
<!-- Generator: Adobe Illustrator 25.3.1, SVG Export Plug-In . SVG Version: 6.00 Build 0)  -->
<svg version="1.1" id="Capa_1" xmlns="http://www.w3.org/2000/svg" xmlns:xlink="http://www.w3.org/1999/xlink" x="0px" y="0px"
	 viewBox="0 0 1280 815" style="enable-background:new 0 0 1280 815;" xml:space="preserve">
<style type="text/css">
	.st0{fill:none;stroke:#1E1E1C;stroke-width:2.7391;stroke-miterlimit:10;}
	.st1{fill:#DEDDDD;}
	.st2{fill:#AED055;}
	.st3{fill:#BFBCBC;}
	.st4{fill:#006633;}
	.st5{fill:none;stroke:#FFFFFF;stroke-width:2.7391;stroke-linecap:round;stroke-miterlimit:10;}
	.st6{fill:#FFFFFF;}
</style>
<line class="st0" x1="389.7" y1="772.7" x2="914.2" y2="772.7"/>
<g>
	<path class="st1" d="M692.3,294.7c-2.2,3.3-1.1,31,0,39.9s2.2,10.6-10,21.3c-12.2,10.8-21.9,12.9-29.9,9.7
		c-7.9-3.2-24.4-33.3-22.1-38.8C632.5,321.3,692.3,294.7,692.3,294.7z"/>
	<path class="st2" d="M671.3,493.7c10,10.7,28.8,21.7,27.7,59.4c-1.1,37.6-13.4,65.6-7.2,68.6c12,5.8,18.2,0.1,32.7-5.5
		c8.7-3.4,19,10.1,0,33.2c-5.7,6.9-14,12.7-3.3,17.7c9.1,4.3-1.6,15.4-10,11.1c-11.1-5.7-29.9-27.4-39.9-23.7
		c-10,3.8-38.7,3.8-45.4-8.4c-6.6-12.2,1.6-42.5,4.4-52c4.3-14.2,4.4-7.7,7.7-28.8c3.3-21-13.3-18.8-28.8-16.6s-41,7.7-48.7,4.4
		s-17.4-98.5,10.1-106.3C598.2,439.1,671.3,493.7,671.3,493.7z"/>
	<path class="st3" d="M542.9,287.4c15.5-16.6,21-22.5,31-41.1s47.6-34.1,66.5-26.4c18.8,7.7,59.8,34.3,63.1,50.9
		s-15.5,32.1-27.7,42.1s-17.7,14.4-22.1,25.5c-4.4,11.1,1.1,21-7.7,21s-15.5-14.4-14.4,0s7.7,16.9,4.4,27.8s-5.5,7.6-2.2,15.3
		c3.3,7.7-95.2-10-103-19.9c-7.7-10,22.1-65.5,17.7-71.5C544,305.1,542.9,287.4,542.9,287.4z"/>
	<path class="st3" d="M554,288.5c-11.1-1.1-86.4,62-85.2,77.5c1.1,15.5-26.6,17.7-35.4,28.8c-8.9,11.1-7.6,136.2-7.7,155
		s-19,31-6.8,46.5s27.2,23.3,40.7,21.7c29.9-3.5,18-15.1,9.2-23.9s-15.5-21-10-24.4c5.5-3.3,12.2-8.9,11.1,7.7s18,16.6,14.5,5.5
		s-4.6-23.2-6.8-35.4c-2.2-12.2,19.9-97.4,22.1-104.1s6.6,55.4,0,75.3s-8.9,58.7,10,79.7s22.1,38.7,12.2,47.6
		c-10,8.9-58.7,59.9-58.7,73.1c0,13.2,18.8,34.3,44.3,34.3s32.1,11.1,46.5,14.4c14.4,3.3,31,8.9,28.8,0s-11.1-14.4-8.9-17.7
		c2.2-3.3,2.2-4.4,0-8.9c-2.2-4.4-25.4-7.7-28.8-11.1c-3.3-3.3,50.9-77.5,48.7-87.5s-25.3-69-20-77.5c50.2-79.9,7.8-105.2,7.8-105.2
		L554,288.5z"/>
	<path class="st4" d="M538.5,320.6c-17.7,15.5-49.8,27.7-49.8,52.1s15.5,59.8,24.9,68.6c9.4,8.9,70.3,59.8,70.3,59.8
		c22.1,15.5,136.2,15.5,152.8,12.2s63.1-11.1,75.3-3.3c12.2,7.7,19.9,6.9,26.6,5.1c6.6-1.8,36.5,7.1,45.4,18.2
		c8.9,11.1,14.4,1.1,8.9-12.2s-46.5-45.4-54.2-37.6s-16.6-12.2-24.4-13.3s-141.7-16.6-151.7-16.6s-33.2-61.7-41-66.3
		c-7.7-4.6-43.2-58.9-55.4-66.6C554,312.9,538.5,320.6,538.5,320.6z"/>
	<path class="st1" d="M639.8,282.7c-6.6,3.3-13.3,13.3-15.5,14.4s-7.7-14.4,0-21S639.8,282.7,639.8,282.7z"/>
	<g>
		<g>
			<path class="st5" d="M539.2,373.9c0,0,3.5,98.3,137.4,106.8c85.7,5.4,119,9.3,131.8,11.3"/>
			<g>
				<polygon class="st6" points="803.6,496.2 806.7,491.7 805.7,486.3 816.4,493.7 				"/>
			</g>
		</g>
	</g>
	<g>
		<g>
			<path class="st5" d="M471.6,397.2c0,0-22.4,32.4-25.2,76.1c-2.1,32.6,3.1,66.3,5.9,81.2"/>
			<g>
				<polygon class="st6" points="446.5,551.8 451.9,552.9 456.5,549.8 453.8,562.6 				"/>
			</g>
		</g>
	</g>
</g>
</svg>
