<?xml version="1.0" encoding="utf-8"?>
<!-- Generator: Adobe Illustrator 25.3.1, SVG Export Plug-In . SVG Version: 6.00 Build 0)  -->
<svg version="1.1" id="Capa_1" xmlns="http://www.w3.org/2000/svg" xmlns:xlink="http://www.w3.org/1999/xlink" x="0px" y="0px"
	 viewBox="0 0 1105.71 412.86" style="enable-background:new 0 0 1105.71 412.86;" xml:space="preserve">
<style type="text/css">
	.st0{fill:url(#SVGID_1_);}
	.st1{fill:none;stroke:#1E1E1C;stroke-width:1.7075;stroke-linecap:round;stroke-linejoin:round;stroke-miterlimit:10;}
	.st2{fill:#1E1E1C;}
	.st3{fill:none;}
	.st4{font-family:'BarlowSemiCondensed-Light';}
	.st5{font-size:25.6123px;}
	.st6{fill:none;stroke:#95C11F;stroke-width:1.7075;stroke-miterlimit:10;stroke-dasharray:2.1515,2.1515;}
	.st7{fill:#95C11F;}
	.st8{fill:url(#SVGID_2_);}
	.st9{fill:url(#SVGID_3_);}
	.st10{fill:url(#SVGID_4_);}
	.st11{fill:url(#SVGID_5_);}
	.st12{fill:url(#SVGID_6_);}
	.st13{fill:url(#SVGID_7_);}
	.st14{fill:url(#SVGID_8_);}
	.st15{fill:url(#SVGID_9_);}
	.st16{fill:url(#SVGID_10_);}
</style>
<linearGradient id="SVGID_1_" gradientUnits="userSpaceOnUse" x1="771.0583" y1="201.9604" x2="704.907" y2="254.2661">
	<stop  offset="0.0269" style="stop-color:#FFFFFF"/>
	<stop  offset="0.5777" style="stop-color:#006633"/>
</linearGradient>
<path class="st0" d="M763.27,204.57c-3.92,3.55-16.19,16.04-23.78,29.3c-7.6,13.26-10.52,27.3-11.68,31.03
	c-2.54,8.19-8.72,9.85-14.61,10.03c-5.89,0.18-4.07-10.85,1.8-16.3c2.51-2.33,1.42-17.09,9.92-32.04
	c12.14-21.34,27.78-44.37,34.49-47.19c1-0.42,9.07-4.79,9.07-4.79"/>
<path class="st1" d="M814.19,147.67c0,0-4.83-2.75-8,0.34c-3.17,3.09-1.98,4.53-0.81,6.37s0.65,3.06-1.53,6.23
	c-2.18,3.17-1.6,9.32,0.89,11.35c2.49,2.04,8.85,1.42,8.85,1.42l5.07-9.28c1.63-10.99-3.86-15.25-6.67-19.26
	c-4.3-6.14-5.02-11.04-20.56-9.44c-14.99,1.54-18.66,12.38-19.2,22.18c-0.38,6.82,0.17,10.57,0.48,14.31
	c0.1,1.25-3.28,1.62-4.24,2.66c0,0-8.07,4.37-9.07,4.79c-6.71,2.82-22.35,25.85-34.49,47.19c-8.5,14.95-7.41,29.71-9.92,32.04
	c-5.88,5.45-7.7,16.47-1.8,16.3c5.89-0.18,12.07-1.84,14.61-10.03c0,0,6.92-26.73,17.04-39.25c10.12-12.52,18.42-21.02,18.42-21.02"
	/>
<rect x="846.34" y="55.78" class="st2" width="5.68" height="19.61"/>
<rect x="676.15" y="55.78" class="st2" width="5.68" height="19.61"/>
<rect x="421.4" y="55.78" class="st2" width="5.68" height="19.61"/>
<rect x="318.21" y="55.78" class="st2" width="5.68" height="19.61"/>
<rect x="236.56" y="55.78" class="st2" width="5.68" height="19.61"/>
<rect x="978.39" y="55.78" class="st2" width="5.68" height="19.61"/>
<g>
	<rect x="469.03" y="81.31" class="st3" width="163.29" height="35.16"/>
	<text transform="matrix(1 0 0 1 499.4417 99.2386)" class="st2 st4 st5">Vuelo libre</text>
</g>
<g>
	<rect x="475.97" y="32.22" class="st3" width="163.29" height="35.16"/>
	<text transform="matrix(1 0 0 1 476.9354 50.1468)" class="st2 st4 st5">Avanza 3 metros</text>
</g>
<g>
	<rect x="133.65" y="343.01" class="st3" width="259.33" height="38.18"/>
	<text transform="matrix(1 0 0 1 141.2806 360.9354)" class="st2 st4 st5">Pre-vuelo de braquiación </text>
</g>
<g>
	<rect x="758.69" y="344.17" class="st3" width="242.62" height="22.09"/>
	<text transform="matrix(1 0 0 1 832.8817 362.0995)" class="st2 st4 st5">Aterrizaje</text>
</g>
<g>
	<g>
		<line class="st6" x1="438.12" y1="65.59" x2="663.24" y2="65.59"/>
		<g>
			<polygon class="st7" points="442.91,71.91 440.23,65.59 442.91,59.26 427.92,65.59 			"/>
		</g>
		<g>
			<polygon class="st7" points="658.45,71.91 661.13,65.59 658.45,59.26 673.43,65.59 			"/>
		</g>
	</g>
</g>
<linearGradient id="SVGID_2_" gradientUnits="userSpaceOnUse" x1="584.6044" y1="171.1613" x2="681.254" y2="87.7074">
	<stop  offset="0.0189" style="stop-color:#FFFFFF"/>
	<stop  offset="0.4426" style="stop-color:#95C11F"/>
</linearGradient>
<path class="st8" d="M576.86,154.71l11-3.93c11.37-5.98,22.13-17.42,35.06-27.16c18.45-13.9,31.74-33.35,35.43-36.13
	c3.69-2.78,12.56-0.13,13.92,3.17c1.18,2.86-2.11,7.95-7.28,10.03s-16.24,33.35-22.14,42.38c-3.76,5.75-50.99,43.16-50.99,43.16"/>
<linearGradient id="SVGID_3_" gradientUnits="userSpaceOnUse" x1="517.3244" y1="168.2083" x2="450.7299" y2="123.5079">
	<stop  offset="0" style="stop-color:#FFFFFF"/>
	<stop  offset="1" style="stop-color:#006633"/>
</linearGradient>
<path class="st9" d="M521.89,187.18l-14.52-4.99c0,0-10.33-2.78-32.47-20.84s-41.33-47.94-46.5-55.58c-5.17-7.64-5.9-9.03,0-15.98
	c5.9-6.95,11.07,10.42,10.33,13.9c-0.74,3.47,30.26,25.01,47.97,36.13c9.28,5.83,19.61,10.91,30.23,12.9
	c2.62,0.49,6.05,0.97,9.87,1.42"/>
<linearGradient id="SVGID_4_" gradientUnits="userSpaceOnUse" x1="1002.0693" y1="212.5577" x2="1084.2858" y2="212.5577">
	<stop  offset="0" style="stop-color:#FFFFFF"/>
	<stop  offset="1" style="stop-color:#006633"/>
</linearGradient>
<path class="st10" d="M1002.07,229.7c4.19,2.09,8.83,3.87,12.83,4.1c10.44,0.61,32.54-15.66,38.68-21.95
	c6.14-6.29,12.28-10.59,19.03-8.14c6.75,2.46,11.67,1.84,11.67-1.84c0-3.68-7.37-11.67-17.19-10.44s-42.37,16.58-47.28,15.96
	c-1.18-0.15-2.51-0.47-3.84-0.98"/>
<linearGradient id="SVGID_5_" gradientUnits="userSpaceOnUse" x1="985.1569" y1="187.4617" x2="985.1569" y2="93.4564">
	<stop  offset="0.0547" style="stop-color:#FFFFFF"/>
	<stop  offset="0.5565" style="stop-color:#95C11F"/>
</linearGradient>
<path class="st11" d="M996.84,184.02c0,0,5.88-28.98,1.6-42.42s-12.14-33.87-12.62-42.29c-0.48-8.42-2.88-9.57,1.68-13.54
	c4.57-3.97,8.18-3.1,1.25-9.22c-3.43-3.03-15.76-3.61-17.81,4.23c-2.05,7.84,1.46,31.95,2.22,47.28c0.5,10.15-0.71,33.49-2.77,53.85
	"/>
<linearGradient id="SVGID_6_" gradientUnits="userSpaceOnUse" x1="388.4763" y1="217.3109" x2="484.1041" y2="217.3109">
	<stop  offset="0.1345" style="stop-color:#FFFFFF"/>
	<stop  offset="0.1602" style="stop-color:#F9FBF2"/>
	<stop  offset="0.2075" style="stop-color:#E9F2D1"/>
	<stop  offset="0.2711" style="stop-color:#CFE39A"/>
	<stop  offset="0.3477" style="stop-color:#ACCF50"/>
	<stop  offset="0.395" style="stop-color:#95C11F"/>
</linearGradient>
<path class="st12" d="M389.16,226.88c0,0,14.74,11.05,25.17,11.67c10.44,0.61,32.54-15.66,38.68-21.95s12.28-10.59,19.03-8.14
	c6.75,2.46,11.67,1.84,11.67-1.84c0-3.68-7.37-11.67-17.19-10.44c-9.82,1.23-42.37,17.96-47.28,17.34
	c-4.91-0.61-8.39-0.4-13.34-7.28"/>
<linearGradient id="SVGID_7_" gradientUnits="userSpaceOnUse" x1="364.7706" y1="179.4831" x2="331.3719" y2="115.469">
	<stop  offset="0.1533" style="stop-color:#FFFFFF"/>
	<stop  offset="0.9026" style="stop-color:#006633"/>
</linearGradient>
<path class="st13" d="M369.14,171.37l-34.58-94.11c0,0-5.55-10.97-12.3-9.12c-6.75,1.84-7.37,7.98-3.07,10.44
	c3.98,2.27,19.53,66.61,23.77,103.44"/>
<linearGradient id="SVGID_8_" gradientUnits="userSpaceOnUse" x1="177.7181" y1="201.2928" x2="49.5512" y2="180.1664">
	<stop  offset="0.1534" style="stop-color:#FFFFFF"/>
	<stop  offset="0.2328" style="stop-color:#E2EEC1"/>
	<stop  offset="0.3292" style="stop-color:#C1DB7C"/>
	<stop  offset="0.4099" style="stop-color:#A9CD4A"/>
	<stop  offset="0.4708" style="stop-color:#9BC42B"/>
	<stop  offset="0.5047" style="stop-color:#95C11F"/>
</linearGradient>
<path class="st14" d="M176.7,180.32c-7.41,2.28-80.4,7.56-95.8,4.64c-15.4-2.92-30.22-5.63-32.5,0c-2.28,5.63-1.71,10.76,3.99,7.91
	c5.7-2.85,14.83-4.08,30.22,0.81s54.74,23.14,60.45,22.57c5.7-0.57,5.7-0.57,5.7-0.57"/>
<linearGradient id="SVGID_9_" gradientUnits="userSpaceOnUse" x1="195.7719" y1="184.942" x2="224.0501" y2="95.0081">
	<stop  offset="0.1031" style="stop-color:#FFFFFF"/>
	<stop  offset="0.6784" style="stop-color:#006633"/>
</linearGradient>
<path class="st15" d="M209.7,177.46c0,0,17.41-23.9,19.12-37.9c1.71-14,3.07-35.85,6.15-43.7s1.37-9.9,7.17-11.61
	c5.8-1.71,8.73,0.59,4.98-7.86c-1.86-4.18-12.82-9.85-17.95-3.57c-5.13,6.27-11.98,29.65-17.68,43.91s-27.37,61.02-34.78,63.3"/>
<path class="st1" d="M409.72,193.93c0.88-7.42,1.5-15.03-2.11-20.19c-4.3-6.14-12.46-15.72-23.95-9.82
	c-14.52,7.45-14.52,7.45-14.52,7.45l-34.58-94.11c0,0-5.55-10.97-12.3-9.12c-6.75,1.84-7.37,7.98-3.07,10.44
	c4.3,2.46,22.1,77.36,24.56,111.75s1.84,70,8.6,74.29c6.75,4.3,23.33,17.81,34.38,15.96s15.35,0,15.96,14.12
	c0.61,14.12-6.75,21.49,4.3,23.95s21.49,15.96,25.17,13.51c3.68-2.46-4.91-15.35-8.6-18.42c-3.68-3.07,2.46-48.51-3.07-57.1
	s-22.1-14.74-26.4-13.51c-4.3,1.23-4.3-16.58-4.3-16.58s14.74,11.05,25.17,11.67c10.44,0.61,32.54-15.66,38.68-21.95
	c6.14-6.29,12.28-10.59,19.03-8.14s11.67,1.84,11.67-1.84c0-3.68-7.37-11.67-17.19-10.44c-9.82,1.23-43.01,18.29-47.92,17.68
	c-3.4-0.42-5.75-1.02-9.47-3.27c-2.53-1.52-9.05-8.42-2.2-13.31L409.72,193.93z"/>
<path class="st1" d="M1002.07,229.7c4.19,2.09,8.83,3.87,12.83,4.1c10.44,0.61,32.54-15.66,38.68-21.95
	c6.14-6.29,12.28-10.59,19.03-8.14c6.75,2.46,11.67,1.84,11.67-1.84c0-3.68-7.37-11.67-17.19-10.44s-42.37,16.58-47.28,15.96
	c-1.18-0.15-2.51-0.47-3.84-0.98"/>
<path class="st1" d="M422.87,282.05c0,0,13.81,2.49,15.61,5.65s2.48,6.77,1.58,9.02c-0.9,2.26-5.41,2.71-5.41,0
	c0-2.71-12.11-3.16-12.11-3.16"/>
<path class="st1" d="M392.99,179.33c0,0-6.56-1.36-5.88,1.81c0.68,3.17,2.92,3.85,2.92,3.85"/>
<path class="st1" d="M408.99,176.92c0,0-4-3.09-7.17,0c-3.17,3.09-2.57,3.25-1.4,5.1c1.17,1.84,1.24,4.33-0.94,7.5
	s-4.45,4.98-1.96,7.02c2.49,2.04,10.06,0.42,10.06,0.42"/>
<path class="st1" d="M92.76,317.73c0,0,3.24,7.23,7.68,6.16c4.44-1.07,1.71-12.59,1.71-15.66c0-3.07,22.19-1.71,30.39-5.12
	c8.19-3.41,22.88-20.83,27.31-26.63c4.44-5.8,1.71-24.58,1.71-24.58s12.63-1.02,24.58-10.24c11.95-9.22,15.71-19.46,15.71-19.46
	s21.85,2.73,22.88-6.83c1.02-9.56-0.68-5.46,0-13.66c0.68-8.19,3.07-11.27-4.44-17.07c-7.51-5.8-10.58-7.17-10.58-7.17
	s17.41-23.9,19.12-37.9c1.71-14,3.07-35.85,6.15-43.7s1.37-9.9,7.17-11.61c5.8-1.71,8.73,0.59,4.98-7.86
	c-1.86-4.18-12.82-9.85-17.95-3.57c-5.13,6.27-11.98,29.65-17.68,43.91s-27.37,61.02-34.78,63.3c-7.41,2.28-80.4,7.56-95.8,4.64
	c-15.4-2.92-30.22-5.63-32.5,0c-2.28,5.63-1.71,10.76,3.99,7.91c5.7-2.85,14.83-4.08,30.22,0.81s54.74,23.14,60.45,22.57
	c5.7-0.57,5.7-0.57,5.7-0.57s-23.38,26.23-23.38,37.64s2.85,17.68-5.7,22.24s-30.79,10.72-34.78,24.18
	c-3.99,13.46-9.69,23.15-5.13,24.29C82.99,324.54,89.08,322.2,92.76,317.73c1.52-1.84,2.63-4.05,2.96-6.54
	c1.14-8.55,6.84-9.8,14.83-11.75c7.98-1.94,28.51-9.35,29.65-15.06c1.14-5.7-1.14-9.12,3.42-14.26c4.56-5.13,5.93-7.98,5.93-7.98"/>
<path class="st1" d="M203.63,194.94c0,0-7.56-2.09-5.59,2.08s4.27,5.15,4.27,5.15"/>
<path class="st1" d="M225.55,192.12c0,0-10.42-4.15-11.07,2.3c-0.66,6.44,3.29,10.06,0,12.69c-3.29,2.63-9.49,4.29-7.84,8.89
	c1.64,4.6,5.23,6.44,5.23,6.44"/>
<path class="st1" d="M599.58,182.07"/>
<path class="st1" d="M521.89,187.06l-14.52-4.99c0,0-10.33-2.78-32.47-20.84s-41.33-47.94-46.5-55.58c-5.17-7.64-5.9-9.03,0-15.98
	c5.9-6.95,11.07,10.42,10.33,13.9s30.26,25.01,47.97,36.13c9.28,5.83,19.61,10.91,30.23,12.9c10.47,1.96,34.02,3.78,42.45,3.78
	c5.3,0,12.62,0.9,17.48-1.65l11-3.93c11.37-5.98,22.13-17.42,35.06-27.16c18.45-13.9,31.74-33.35,35.43-36.13
	c3.69-2.78,12.56-0.13,13.92,3.17c1.18,2.86-2.11,7.95-7.28,10.03s-16.24,33.35-22.14,42.38c-3.76,5.75-50.99,43.16-50.99,43.16
	c-1.48,10.42-26.57,40.3-20.67,41.69s29.52,26.4,33.95,34.04c4.43,7.64,0.74,36.13,0.74,36.13s1.48,3.47,8.86,9.73
	s2.6,16.92-2.21,18.85c-2.72,1.09-6.64-4.95-11.07-11.21c-4.43-6.25-8.12-2.78-13.28-8.34s-2.95-22.23-5.17-34.04
	c-2.21-11.81-33.45-23.62-33.45-23.62s10.57,20.15,12.04,27.79c1.48,7.64-4.43,20.15-4.43,26.4s3.69,11.12,3.69,18.06
	c0,6.95-12.55,6.25-18.45,0c-5.9-6.25-8.12-18.76-6.64-34.04c1.48-15.29-4.43-29.88-11.81-45.86s-1.48-59.75-1.48-59.75"/>
<path class="st1" d="M536.66,154.71c0,0,3.75-12.3,24.48-10.6c9.06,0.74,15.72,10.6,15.72,10.6"/>
<line class="st1" x1="176.7" y1="180.03" x2="187.21" y2="179.21"/>
<path class="st1" d="M996.84,184.02c0,0,5.88-28.98,1.6-42.42s-12.14-33.87-12.62-42.29c-0.48-8.42-2.88-9.57,1.68-13.54
	c4.57-3.97,8.18-3.1,1.25-9.22c-3.43-3.03-15.76-3.61-17.81,4.23c-2.05,7.84,1.46,31.95,2.22,47.28
	c0.75,15.34-2.39,60.76-6.49,80.54c-2.25,10.85-10.33,33.59-5.58,43.95s9.96,14.88,4.08,22.59s-23.53,22.58-21.55,36.47
	s0.83,25.08,5.45,24.22c3.27-0.61,7.84-5.28,9.32-10.88c0.61-2.31,0.7-4.77-0.03-7.18c-2.53-8.25,2.14-11.76,8.59-16.85
	c6.45-5.09,22.03-20.38,20.69-26.04c-1.34-5.66-4.84-7.82-2.83-14.39c2.01-6.57,2.07-9.73,2.07-9.73"/>
<path class="st1" d="M958.4,324.97c0,0,5.96,5.23,9.55,2.4c3.59-2.82-3.69-12.15-4.97-14.95c-1.28-2.79,19.23-11.02,25.49-17.31
	c16.89-16.99,15.88-27.29,13.74-35.59c-1.83-7.07-8.69-23.06-8.69-23.06s11.06-6.19,18.08-19.55c7.02-13.36,6.17-24.23,6.17-24.23
	s21-6.62,17.95-15.74c-3.05-9.12-2.9-4.68-5.69-12.42c-2.79-7.73-1.9-11.52-11.15-13.67c-9.25-2.15-18.9-2.11-18.9-2.11"/>
<path class="st1" d="M1008.05,167.16c0,0-7.74,1.25-4.21,4.21s6.03,2.91,6.03,2.91"/>
<path class="st1" d="M1026.8,155.46c0,0-11.2,0.57-9.11,6.7c2.09,6.13,7.18,7.77,5.28,11.53c-1.89,3.76-6.95,5.35-3.54,8.85
	c3.41,3.5,7.55,6.18,7.55,6.18"/>
<path class="st1" d="M756.25,256.59c4.68,6.62,17.89,8.78,17.89,8.78"/>
<linearGradient id="SVGID_10_" gradientUnits="userSpaceOnUse" x1="818.6838" y1="180.232" x2="838.5151" y2="118.9352">
	<stop  offset="0.0547" style="stop-color:#FFFFFF"/>
	<stop  offset="0.5565" style="stop-color:#95C11F"/>
</linearGradient>
<path class="st16" d="M812.49,177.35c0,0,0.71-3.02,1.1-3.97c7.11-17.66,20.32-70.67,22.56-78.94c2.63-9.7,7.86-20.6,13.84-22.84
	c5.98-2.24,7.21,8.35,7.21,8.35s-4.13,7.61-7.21,13.67c-3.08,6.06-4.15,28.91-8.51,47.04c-3.9,16.22-14.05,40.06-18.2,52.22"/>
<path class="st1" d="M766.71,191.12c-0.7,3.31-3.78,15.48-3.78,15.48c-0.01,3.73,0.66,10.24-2.3,17.11
	c-1.74,4.05-4.49,10.82-7.12,18.15c-3.63,10.13-7.05,21.34-7.29,27.91c-0.42,11.33-12.95,21.77-14.47,31.39s-1.19,13.5-1.19,13.5
	s-9.7,16.98-5.12,19.12c4.58,2.14,17.9-5.2,17.56-11.72c-0.33-6.51,5.74-0.8,15.88-25.81c10.15-25.02,15.26-30.88,15.26-30.88
	s11.09,4.67,5.75,17.44s-7.03,16.5-9.96,20.54s-1.02,16.76,1.96,25.9c2.98,9.14,5.49,16.43,7.95,10.52c2.46-5.9,0.23-22.5,0.23-22.5
	s21.61-25.14,22.69-30.18c2.6-12.05-9.46-34.65-7.37-39.42c2.09-4.77,23.83-41.31,26.28-49.86c2.45-8.54,16.88-36.43,19.8-57.17
	c2.61-18.47,5.43-40.98,8.51-47.04c3.08-6.06,7.21-13.67,7.21-13.67s-1.24-10.59-7.21-8.35c-5.98,2.24-11.21,13.14-13.84,22.84
	c-2.24,8.26-15.45,61.28-22.56,78.94c-0.38,0.96-0.59,1.55-1.1,2.32c-2.94,4.47-6.92,2.7-8.03,1.43c-0.93-1.06,5.4-3.71,5.4-3.71"/>
<path class="st1" d="M794.4,153.4c0,0-6.56-1.36-5.88,1.81c0.68,3.17,2.92,3.85,2.92,3.85"/>
</svg>
