<?xml version="1.0" encoding="utf-8"?>
<!-- Generator: Adobe Illustrator 25.3.1, SVG Export Plug-In . SVG Version: 6.00 Build 0)  -->
<svg version="1.1" id="Capa_1" xmlns="http://www.w3.org/2000/svg" xmlns:xlink="http://www.w3.org/1999/xlink" x="0px" y="0px"
	 viewBox="0 0 1280 401.56" style="enable-background:new 0 0 1280 401.56;" xml:space="preserve">
<style type="text/css">
	.st0{fill:#1E1E1C;}
	.st1{fill:url(#SVGID_1_);}
	.st2{fill:url(#SVGID_2_);}
	.st3{fill:none;stroke:#1E1E1C;stroke-width:1.8415;stroke-linecap:round;stroke-linejoin:round;stroke-miterlimit:10;}
</style>
<rect x="333.57" y="50.12" class="st0" width="6.13" height="21.15"/>
<linearGradient id="SVGID_1_" gradientUnits="userSpaceOnUse" x1="270.1127" y1="181.2058" x2="131.8831" y2="203.9909" gradientTransform="matrix(1 0 0 -1 0 388.2684)">
	<stop  offset="0.1534" style="stop-color:#FFFFFF"/>
	<stop  offset="0.2328" style="stop-color:#E2EEC1"/>
	<stop  offset="0.3292" style="stop-color:#C1DB7C"/>
	<stop  offset="0.4099" style="stop-color:#A9CD4A"/>
	<stop  offset="0.4708" style="stop-color:#9BC42B"/>
	<stop  offset="0.5047" style="stop-color:#95C11F"/>
</linearGradient>
<path class="st1" d="M269.01,184.44c-8,2.46-86.72,8.15-103.32,5c-16.61-3.15-32.6-6.07-35.06,0c-2.46,6.07-1.85,11.61,4.31,8.53
	s15.99-4.4,32.6,0.88c16.61,5.27,59.04,24.95,65.19,24.34s6.15-0.61,6.15-0.61"/>
<linearGradient id="SVGID_2_" gradientUnits="userSpaceOnUse" x1="289.5828" y1="198.8406" x2="320.0811" y2="295.8355" gradientTransform="matrix(1 0 0 -1 0 388.2684)">
	<stop  offset="0.1031" style="stop-color:#FFFFFF"/>
	<stop  offset="0.6784" style="stop-color:#006633"/>
</linearGradient>
<path class="st2" d="M304.6,181.36c0,0,18.78-25.78,20.62-40.87c1.84-15.1,3.31-38.66,6.63-47.13c3.31-8.47,1.47-10.68,7.73-12.52
	s9.42,0.63,5.37-8.47c-2-4.51-13.83-10.62-19.36-3.85c-5.54,6.77-12.92,31.98-19.07,47.36c-6.15,15.38-29.52,65.81-37.52,68.27"/>
<path class="st3" d="M178.49,332.64c0,0,3.49,7.8,8.28,6.65c4.79-1.15,1.84-13.58,1.84-16.89s23.94-1.84,32.77-5.52
	c8.84-3.68,24.67-22.46,29.46-28.72c4.79-6.26,1.84-26.51,1.84-26.51s13.62-1.1,26.51-11.05s16.94-20.99,16.94-20.99
	s23.57,2.95,24.67-7.36s-0.74-5.89,0-14.73c0.74-8.84,3.31-12.15-4.79-18.41c-8.1-6.26-11.42-7.73-11.42-7.73
	s18.78-25.78,20.62-40.87c1.84-15.1,3.31-38.66,6.63-47.13c3.31-8.47,1.47-10.68,7.73-12.52s9.42,0.63,5.37-8.47
	c-2-4.51-13.83-10.62-19.36-3.85c-5.54,6.77-12.92,31.98-19.07,47.36s-29.52,65.81-37.52,68.27s-86.72,8.15-103.32,5
	s-32.6-6.07-35.06,0c-2.46,6.07-1.85,11.61,4.31,8.53s15.99-4.4,32.6,0.88c16.61,5.28,59.04,24.95,65.19,24.34s6.15-0.61,6.15-0.61
	s-25.22,28.29-25.22,40.59c0,12.3,3.08,19.07-6.15,23.99s-33.21,11.57-37.52,26.08c-4.31,14.51-10.46,24.97-5.54,26.2
	C167.94,339.98,174.51,337.46,178.49,332.64c1.64-1.99,2.83-4.36,3.19-7.06c1.23-9.23,7.38-10.57,15.99-12.67
	c8.61-2.09,30.75-10.09,31.98-16.24c1.23-6.15-1.23-9.84,3.69-15.38s6.4-8.61,6.4-8.61"/>
<path class="st3" d="M298.06,200.21c0,0-8.15-2.26-6.03,2.24s4.61,5.56,4.61,5.56"/>
<path class="st3" d="M321.7,197.16c0,0-11.23-4.47-11.94,2.48c-0.71,6.95,3.54,10.85,0,13.68c-3.54,2.84-10.23,4.63-8.46,9.59
	c1.77,4.96,5.64,6.94,5.64,6.94"/>
<line class="st3" x1="269.01" y1="184.13" x2="280.34" y2="183.25"/>
</svg>
