<?xml version="1.0" encoding="utf-8"?>
<!-- Generator: Adobe Illustrator 25.3.1, SVG Export Plug-In . SVG Version: 6.00 Build 0)  -->
<svg version="1.1" id="Capa_1" xmlns="http://www.w3.org/2000/svg" xmlns:xlink="http://www.w3.org/1999/xlink" x="0px" y="0px"
	 viewBox="0 0 1348 401.6" style="enable-background:new 0 0 1348 401.6;" xml:space="preserve">
<style type="text/css">
	.st0{fill:url(#SVGID_1_);}
	.st1{fill:none;stroke:#1E1E1C;stroke-width:1.7519;stroke-linecap:round;stroke-linejoin:round;stroke-miterlimit:10;}
	.st2{fill:#1E1E1C;}
	.st3{fill:url(#SVGID_2_);}
</style>
<linearGradient id="SVGID_1_" gradientUnits="userSpaceOnUse" x1="990.1168" y1="196.0149" x2="922.2437" y2="249.6821">
	<stop  offset="2.690412e-02" style="stop-color:#FFFFFF"/>
	<stop  offset="0.5777" style="stop-color:#006633"/>
</linearGradient>
<path class="st0" d="M982.1,198.7c-4,3.6-16.6,16.5-24.4,30.1c-7.8,13.6-10.8,28-12,31.8c-2.6,8.4-8.9,10.1-15,10.3
	c-6,0.2-4.2-11.1,1.8-16.7c2.6-2.4,1.5-17.5,10.2-32.9c12.5-21.9,28.5-45.5,35.4-48.4c1-0.4,9.3-4.9,9.3-4.9"/>
<path class="st1" d="M1034.4,140.3c0,0-5-2.8-8.2,0.3c-3.3,3.2-2,4.6-0.8,6.5c1.2,1.9,0.7,3.1-1.6,6.4c-2.2,3.3-1.6,9.6,0.9,11.6
	c2.6,2.1,9.1,1.5,9.1,1.5l5.2-9.5c1.7-11.3-4-15.6-6.8-19.8c-4.4-6.3-5.1-11.3-21.1-9.7c-15.4,1.6-19.1,12.7-19.7,22.8
	c-0.4,7,0.2,10.8,0.5,14.7c0.1,1.3-3.4,1.7-4.4,2.7c0,0-8.3,4.5-9.3,4.9c-6.9,2.9-22.9,26.5-35.4,48.4c-8.7,15.3-7.6,30.5-10.2,32.9
	c-6,5.6-7.9,16.9-1.8,16.7c6-0.2,12.4-1.9,15-10.3c0,0,7.1-27.4,17.5-40.3c10.4-12.9,18.9-21.6,18.9-21.6"/>
<rect x="1067.4" y="46" class="st2" width="5.8" height="20.1"/>
<path class="st1" d="M974.9,252.1c4.8,6.8,18.4,9,18.4,9"/>
<linearGradient id="SVGID_2_" gradientUnits="userSpaceOnUse" x1="1038.9819" y1="173.7209" x2="1059.3295" y2="110.8286">
	<stop  offset="5.472384e-02" style="stop-color:#FFFFFF"/>
	<stop  offset="0.5565" style="stop-color:#95C11F"/>
</linearGradient>
<path class="st3" d="M1032.6,170.8c0,0,0.7-3.1,1.1-4.1c7.3-18.1,20.9-72.5,23.1-81c2.7-10,8.1-21.1,14.2-23.4
	c6.1-2.3,7.4,8.6,7.4,8.6s-4.2,7.8-7.4,14s-4.3,29.7-8.7,48.3c-4,16.6-14.4,41.1-18.7,53.6"/>
<path class="st1" d="M985.7,184.9c-0.7,3.4-3.9,15.9-3.9,15.9c0,3.8,0.7,10.5-2.4,17.6c-1.8,4.2-4.6,11.1-7.3,18.6
	c-3.7,10.4-7.2,21.9-7.5,28.6c-0.4,11.6-13.3,22.3-14.8,32.2s-1.2,13.9-1.2,13.9s-10,17.4-5.3,19.6c4.7,2.2,18.4-5.3,18-12
	c-0.3-6.7,5.9-0.8,16.3-26.5c10.4-25.7,15.7-31.7,15.7-31.7s11.4,4.8,5.9,17.9c-5.5,13.1-7.2,16.9-10.2,21.1c-3,4.1-1.1,17.2,2,26.6
	c3.1,9.4,5.6,16.9,8.2,10.8c2.5-6.1,0.2-23.1,0.2-23.1s22.2-25.8,23.3-31c2.7-12.4-9.7-35.5-7.6-40.4c2.1-4.9,24.4-42.4,27-51.2
	s17.3-37.4,20.3-58.7c2.7-18.9,5.6-42,8.7-48.3s7.4-14,7.4-14s-1.3-10.9-7.4-8.6c-6.1,2.3-11.5,13.5-14.2,23.4
	c-2.3,8.5-15.9,62.9-23.1,81c-0.4,1-0.6,1.6-1.1,2.4c-3,4.6-7.1,2.8-8.2,1.5c-1-1.1,5.5-3.8,5.5-3.8"/>
<path class="st1" d="M1014.1,146.2c0,0-6.7-1.4-6,1.9c0.7,3.3,3,3.9,3,3.9"/>
</svg>
