<?xml version="1.0" encoding="utf-8"?>
<!-- Generator: Adobe Illustrator 25.3.1, SVG Export Plug-In . SVG Version: 6.00 Build 0)  -->
<svg version="1.1" id="Capa_1" xmlns="http://www.w3.org/2000/svg" xmlns:xlink="http://www.w3.org/1999/xlink" x="0px" y="0px"
	 viewBox="0 0 1348 401.6" style="enable-background:new 0 0 1348 401.6;" xml:space="preserve">
<style type="text/css">
	.st0{fill:#1E1E1C;}
	.st1{fill:url(#SVGID_1_);}
	.st2{fill:url(#SVGID_2_);}
	.st3{fill:none;stroke:#1E1E1C;stroke-width:1.7519;stroke-linecap:round;stroke-linejoin:round;stroke-miterlimit:10;}
</style>
<rect x="1202.8" y="46" class="st0" width="5.8" height="20.1"/>
<linearGradient id="SVGID_1_" gradientUnits="userSpaceOnUse" x1="1227.1409" y1="206.888" x2="1311.4973" y2="206.888">
	<stop  offset="0" style="stop-color:#FFFFFF"/>
	<stop  offset="1" style="stop-color:#006633"/>
</linearGradient>
<path class="st1" d="M1227.1,224.5c4.3,2.1,9.1,4,13.2,4.2c10.7,0.6,33.4-16.1,39.7-22.5c6.3-6.5,12.6-10.9,19.5-8.3
	c6.9,2.5,12,1.9,12-1.9s-7.6-12-17.6-10.7s-43.5,17-48.5,16.4c-1.2-0.2-2.6-0.5-3.9-1"/>
<linearGradient id="SVGID_2_" gradientUnits="userSpaceOnUse" x1="1209.7882" y1="181.1388" x2="1209.7882" y2="84.6866">
	<stop  offset="5.472384e-02" style="stop-color:#FFFFFF"/>
	<stop  offset="0.5565" style="stop-color:#95C11F"/>
</linearGradient>
<path class="st2" d="M1221.8,177.6c0,0,6-29.7,1.6-43.5c-4.4-13.8-12.5-34.8-12.9-43.4s-3-9.8,1.7-13.9c4.7-4.1,8.4-3.2,1.3-9.5
	c-3.5-3.1-16.2-3.7-18.3,4.3c-2.1,8,1.5,32.8,2.3,48.5c0.5,10.4-0.7,34.4-2.8,55.2"/>
<path class="st3" d="M1227.1,224.5c4.3,2.1,9.1,4,13.2,4.2c10.7,0.6,33.4-16.1,39.7-22.5c6.3-6.5,12.6-10.9,19.5-8.3
	c6.9,2.5,12,1.9,12-1.9s-7.6-12-17.6-10.7s-43.5,17-48.5,16.4c-1.2-0.2-2.6-0.5-3.9-1"/>
<path class="st3" d="M1221.8,177.6c0,0,6-29.7,1.6-43.5c-4.4-13.8-12.5-34.8-12.9-43.4s-3-9.8,1.7-13.9c4.7-4.1,8.4-3.2,1.3-9.5
	c-3.5-3.1-16.2-3.7-18.3,4.3c-2.1,8,1.5,32.8,2.3,48.5s-2.4,62.3-6.7,82.6c-2.3,11.1-10.6,34.5-5.7,45.1s10.2,15.3,4.2,23.2
	c-6,7.9-24.1,23.2-22.1,37.4c2,14.3,0.9,25.7,5.6,24.9c3.4-0.6,8-5.4,9.6-11.2c0.6-2.4,0.7-4.9,0-7.4c-2.6-8.5,2.2-12.1,8.8-17.3
	c6.6-5.2,22.6-20.9,21.2-26.7s-5-8-2.9-14.8c2.1-6.7,2.1-10,2.1-10"/>
<path class="st3" d="M1182.3,322.2c0,0,6.1,5.4,9.8,2.5s-3.8-12.5-5.1-15.3c-1.3-2.9,19.7-11.3,26.2-17.8
	c17.3-17.4,16.3-28,14.1-36.5c-1.9-7.3-8.9-23.7-8.9-23.7s11.3-6.4,18.6-20.1c7.2-13.7,6.3-24.9,6.3-24.9s21.5-6.8,18.4-16.1
	s-3-4.8-5.8-12.7c-2.9-7.9-1.9-11.8-11.4-14c-9.5-2.2-19.4-2.2-19.4-2.2"/>
<path class="st3" d="M1233.3,160.3c0,0-7.9,1.3-4.3,4.3c3.6,3,6.2,3,6.2,3"/>
<path class="st3" d="M1252.5,148.3c0,0-11.5,0.6-9.3,6.9c2.1,6.3,7.4,8,5.4,11.8s-7.1,5.5-3.6,9.1c3.5,3.6,7.7,6.3,7.7,6.3"/>
</svg>
