<?xml version="1.0" encoding="utf-8"?>
<!-- Generator: Adobe Illustrator 25.3.1, SVG Export Plug-In . SVG Version: 6.00 Build 0)  -->
<svg version="1.1" id="Capa_1" xmlns="http://www.w3.org/2000/svg" xmlns:xlink="http://www.w3.org/1999/xlink" x="0px" y="0px"
	 viewBox="0 0 1280 1024" style="enable-background:new 0 0 1280 1024;" xml:space="preserve">
<style type="text/css">
	.st0{fill:#95C11F;}
	.st1{fill:#327241;}
	.st2{fill:#006633;}
	.st3{fill:#D2E5A1;}
	.st4{fill:#AED055;}
	.st5{fill:none;stroke:#C4DD82;stroke-width:3.4531;stroke-miterlimit:10;stroke-dasharray:3.5794,3.5794;}
	.st6{fill:#C4DD82;}
	.st7{fill:none;stroke:#95C11F;stroke-width:3.4531;stroke-miterlimit:10;stroke-dasharray:2.242,2.242;}
	.st8{fill:none;stroke:#C4DD82;stroke-width:3.7944;stroke-miterlimit:10;stroke-dasharray:3.9332,3.9332;}
	.st9{fill:none;stroke:#C4DD82;stroke-width:3.6183;stroke-miterlimit:10;stroke-dasharray:3.7506,3.7506;}
	.st10{fill:none;stroke:#95C11F;stroke-width:3.4531;stroke-miterlimit:10;stroke-dasharray:2.1539,2.1539;}
	.st11{fill:none;}
	.st12{fill:#1E1E1C;}
	.st13{font-family:'Roboto-Regular', sans-serif;}
	.st14{font-size:30.5453px;}
	.st15{opacity:0;}
	.st16{fill:#FFFFFF;}
	.st17{font-family:"Roboto", sans-serif}
	.st18{font-size:41.8122px;}
	#valores{
	opacity:0; transition:all ease 0.25s
	}
	svg:hover #valores{opacity:1; transition:all ease 0.25s}
</style>
<g id="Capa_1_1_">
	<g>
		<g>
			<g>
				<g>
					<path class="st0" d="M309.8,556.7L78.2,481.5c33.2-102.3,123.9-168.3,231.6-168.3L309.8,556.7L309.8,556.7z"/>
				</g>
			</g>
			<g>
				<g>
					<path class="st1" d="M309.8,556.7l143.1,197c-108.8,79-261,54.9-340.1-53.9c-47.5-65.2-59.5-141.5-34.6-218.3L309.8,556.7z"/>
				</g>
			</g>
			<g>
				<g>
					<path class="st2" d="M309.8,556.7V313.2c134.4,0,243.5,109.1,243.5,243.5c0,80.6-35.1,149.5-100.4,197L309.8,556.7z"/>
				</g>
			</g>
		</g>
	</g>
	<g>
		<g>
			<g>
				<g>
					<path class="st3" d="M986.1,535l-16.9-241.5c5.3-0.4,11.5-0.6,16.9-0.6V535z"/>
				</g>
			</g>
			<g>
				<g>
					<path class="st4" d="M986.1,535L766.7,432.6c38.4-82.5,111.9-132.9,202.4-139.2L986.1,535z"/>
				</g>
			</g>
			<g>
				<g>
					<path class="st0" d="M986.1,535L833.8,723.1c-87.2-70.7-114.5-188.6-67.1-290.4L986.1,535z"/>
				</g>
			</g>
			<g>
				<g>
					<path class="st2" d="M986.1,535V292.9c133.7,0,242.1,108.4,242.1,242.1S1119.8,777,986.1,777c-58.8,0-106.7-16.9-152.3-53.9
						L986.1,535z"/>
				</g>
			</g>
		</g>
	</g>
	<g>
		<g>
			<polyline class="st5" points="112.9,256.8 112.9,469.3 159.3,469.3 			"/>
			<g>
				<ellipse class="st6" cx="159" cy="469.3" rx="6.4" ry="6.4"/>
			</g>
		</g>
	</g>
	<g>
		<g>
			<line class="st7" x1="418.7" y1="297" x2="418.7" y2="511.4"/>
			<g>
				
					<ellipse transform="matrix(0.9239 -0.3827 0.3827 0.9239 -163.7531 199.158)" class="st0" cx="418.7" cy="511.2" rx="6.4" ry="6.4"/>
			</g>
		</g>
	</g>
	<g>
		<g>
			<line class="st8" x1="804.1" y1="614.3" x2="804.1" y2="757"/>
			<g>
				<ellipse class="st6" cx="804.1" cy="614.6" rx="7.1" ry="7.1"/>
			</g>
		</g>
	</g>
	<g>
		<g>
			<line class="st5" x1="1081" y1="631.1" x2="1081" y2="840.3"/>
			<g>
				<ellipse class="st6" cx="1081" cy="631.6" rx="6.4" ry="6.4"/>
			</g>
		</g>
	</g>
	<g>
		<g>
			<line class="st5" x1="978.3" y1="241.1" x2="978.3" y2="304.1"/>
			<g>
				
					<ellipse transform="matrix(0.7071 -0.7071 0.7071 0.7071 71.701 780.7286)" class="st6" cx="978.3" cy="303.8" rx="6.4" ry="6.4"/>
			</g>
		</g>
	</g>
	<g>
		<g>
			<line class="st9" x1="828.8" y1="406.2" x2="828.8" y2="317.1"/>
			<g>
				<path class="st6" d="M835.5,405.9c0,3.8-3.1,6.9-6.9,6.9c-3.8,0-6.9-3.1-6.9-6.9c0-3.8,3.1-6.9,6.9-6.9
					C832.4,399,835.5,402.1,835.5,405.9z"/>
			</g>
		</g>
	</g>
	<g>
		<g>
			<line class="st10" x1="231.5" y1="668.8" x2="231.5" y2="851.5"/>
			<g>
				
					<image style="overflow:visible;" width="14" height="14" xlink:href="8A0BF6EBC4064449.png"  transform="matrix(1 0 0 1 225 662)">
				</image>
			</g>
		</g>
	</g>
</g>
<g id="leyendas">
	<g>
		
			<rect x="48.7" y="127.7" transform="matrix(0.9999 -1.184371e-02 1.184371e-02 0.9999 -2.2731 2.5427)" class="st11" width="329.7" height="131"/>
		<text transform="matrix(0.9999 -1.184035e-02 1.184035e-02 0.9999 48.286 155.8499)" class="st12 st13 st14">Acicalamiento (limpieza </text>
		<text transform="matrix(0.9999 -1.184035e-02 1.184035e-02 0.9999 48.7194 192.4489)" class="st12 st13 st14">y/o desparasitación) y </text>
		<text transform="matrix(0.9999 -1.184035e-02 1.184035e-02 0.9999 49.1544 229.1856)" class="st12 st13 st14">búsqueda de comida.</text>
	</g>
	<g>
		
			<rect x="356.1" y="264.3" transform="matrix(0.9999 -1.184371e-02 1.184371e-02 0.9999 -3.2783 5.21)" class="st11" width="164.3" height="30.1"/>
		<text transform="matrix(0.9999 -1.184035e-02 1.184035e-02 0.9999 356.1854 291.5117)" class="st12 st13 st14">Descanso</text>
	</g>
	<g>
		
			<rect x="1005.7" y="855.6" transform="matrix(0.9999 -1.184371e-02 1.184371e-02 0.9999 -10.2548 13.0033)" class="st11" width="174.1" height="33.4"/>
		<text transform="matrix(0.9999 -1.184035e-02 1.184035e-02 0.9999 1005.842 882.9352)" class="st12 st13 st14">Frugívoro</text>
	</g>
	<g>
		
			<rect x="753.2" y="273.5" transform="matrix(0.9999 -1.184371e-02 1.184371e-02 0.9999 -3.3422 9.9734)" class="st11" width="174.3" height="27.2"/>
		<text transform="matrix(0.9999 -1.184035e-02 1.184035e-02 0.9999 753.3643 300.8076)" class="st12 st13 st14">Folívoro </text>
	</g>
	<g>
		
			<rect x="715.9" y="758" transform="matrix(0.9999 -1.184371e-02 1.184371e-02 0.9999 -9.1233 9.7713)" class="st11" width="209" height="34.3"/>
		<text transform="matrix(0.9999 -1.184035e-02 1.184035e-02 0.9999 716.0978 785.5104)" class="st12 st13 st14">Insectívoro </text>
	</g>
	<g>
		
			<rect x="141.3" y="857.2" transform="matrix(0.9999 -1.184371e-02 1.184371e-02 0.9999 -10.4397 2.8274)" class="st11" width="184.4" height="51.2"/>
		<text transform="matrix(0.9999 -1.184035e-02 1.184035e-02 0.9999 141.3885 884.5565)" class="st12 st13 st14">Alimentación</text>
	</g>
	<g>
		
			<rect x="871.7" y="153.7" transform="matrix(0.9999 -1.184371e-02 1.184371e-02 0.9999 -2.1771 11.4618)" class="st11" width="189.9" height="71.7"/>
		<text transform="matrix(0.9999 -1.184035e-02 1.184035e-02 0.9999 924.0828 176.2219)" class="st12 st13 st14">Flores</text>
		<text transform="matrix(0.9999 -1.184035e-02 1.184035e-02 0.9999 944.8799 212.5797)" class="st12 st13 st14">1%</text>
	</g>
</g>
<g id="valores" class="st15">
	<g>
		<text transform="matrix(1 0 0 1 375.0952 556.834)" class="st16 st17 st18">40% </text>
	</g>
	<g>
		<text transform="matrix(1 0 0 1 180.2832 656.6445)" class="st16 st17 st18">40% </text>
	</g>
	<g>
		<rect x="176" y="443.9" class="st11" width="89.4" height="42.2"/>
		<text transform="matrix(1 0 0 1 178.8667 479.9399)" class="st16 st17 st18">20%</text>
	</g>
	<g>
		<rect x="1037.9" y="562.3" class="st11" width="104.3" height="36.6"/>
		<text transform="matrix(1 0 0 1 1048.2012 592.3477)" class="st16 st17 st18">61%</text>
	</g>
	<g>
		<rect x="815.2" y="565.5" class="st11" width="108.9" height="43.8"/>
		<text transform="matrix(1 0 0 1 827.8516 595.6592)" class="st16 st17 st18">21%</text>
	</g>
	<g>
		<rect x="869.7" y="411.8" class="st11" width="83.8" height="35.3"/>
		<text transform="matrix(1 0 0 1 869.7168 441.8345)" class="st16 st17 st18">17%</text>
	</g>
</g>
</svg>
