<?xml version="1.0" encoding="utf-8"?>
<!-- Generator: Adobe Illustrator 25.3.1, SVG Export Plug-In . SVG Version: 6.00 Build 0)  -->
<svg version="1.1" id="Capa_1" xmlns="http://www.w3.org/2000/svg" xmlns:xlink="http://www.w3.org/1999/xlink" x="0px" y="0px"
	 viewBox="0 0 801.7 197.2" style="enable-background:new 0 0 801.7 197.2;" xml:space="preserve">
<style type="text/css">
	.st0{fill:none;stroke:#95C11F;stroke-width:9.1406;stroke-miterlimit:10;}
	.st1{fill:#95C11F;}
	.st2{fill:#1E1E1C;}
	.st3{font-family:'Roboto', sans-serif;}
	.st4{font-size:9.9609px;}
	.st5{fill:none;stroke:#006633;stroke-width:9.1406;stroke-miterlimit:10;}
	.st6{fill:#006633;}
	.st7{fill:#95C11F;stroke:#006633;stroke-width:4.5074;stroke-miterlimit:10;}
	.st8{fill:#006633;stroke:#95C11F;stroke-width:4.5074;stroke-miterlimit:10;}
	.st9{fill:none;stroke:#006633;stroke-width:0.5859;stroke-miterlimit:10;stroke-dasharray:1.0807,0.8646;}
	.st10{fill:none;stroke:#95C11F;stroke-width:0.5859;stroke-miterlimit:10;stroke-dasharray:1.0807,0.8646;}
	.st11{font-family:'Roboto-Regular', sans-serif;}
	.st12{font-size:8.789px;}
	.st13{fill:none;}
	.st14{enable-background:new    ;}
</style>
<g id="Capa_1_1_">
	<g>
		<g>
			<line class="st0" x1="306.1" y1="84.4" x2="762.3" y2="84.4"/>
			<g>
				<polygon class="st1" points="759.2,94.9 777.3,84.4 759.2,74 				"/>
			</g>
		</g>
	</g>
	<g>
		<text transform="matrix(1 0 0 1 14.6851 134.8066)" class="st2 st3 st4">1980</text>
	</g>
	<g>
		<text transform="matrix(1 0 0 1 285.7734 134.8857)" class="st2 st3 st4">1995</text>
	</g>
	<g>
		<text transform="matrix(1 0 0 1 341.0947 134.8057)" class="st2 st3 st4">1998</text>
	</g>
	<g>
		<text transform="matrix(1 0 0 1 518.127 70.0796)" class="st2 st3 st4">2008</text>
	</g>
	<g>
		<text transform="matrix(1 0 0 1 737.042 140.3906)" class="st2 st3 st4">A la fecha</text>
	</g>
	<g>
		<text transform="matrix(1 0 0 1 196.3921 134.8057)" class="st2 st3 st4">1990</text>
	</g>
	<g>
		<g>
			<line class="st5" x1="17" y1="113.3" x2="762.3" y2="113.3"/>
			<g>
				<polygon class="st6" points="759.2,123.8 777.3,113.3 759.2,102.8 				"/>
			</g>
		</g>
	</g>
	<g>
		<text transform="matrix(1 0 0 1 644.9609 70.0796)" class="st2 st3 st4"> 2015</text>
	</g>
	<g>
		<text transform="matrix(1 0 0 1 683.1074 70.0786)" class="st2 st3 st4"> 2017</text>
	</g>
	<g>
		<text transform="matrix(1 0 0 1 304.3311 70.0786)" class="st2 st3 st4">1996</text>
	</g>
	<circle class="st7" cx="23.2" cy="113.3" r="6.3"/>
	<circle class="st7" cx="204.7" cy="113.3" r="6.3"/>
	<circle class="st7" cx="294.6" cy="113.3" r="6.3"/>
	<circle class="st8" cx="312.4" cy="84.4" r="6.3"/>
	<circle class="st8" cx="528.1" cy="84.4" r="6.3"/>
	<circle class="st8" cx="655.7" cy="84.4" r="6.3"/>
	<circle class="st8" cx="691.8" cy="84.4" r="6.3"/>
	<circle class="st7" cx="349.6" cy="113.3" r="6.3"/>
	<circle class="st7" cx="421.2" cy="113.3" r="6.3"/>
	<line class="st9" x1="312.6" y1="71.4" x2="312.6" y2="83.9"/>
	<g>
		<text transform="matrix(1 0 0 1 412.9824 134.8047)" class="st2 st3 st4">2002</text>
	</g>
	<line class="st10" x1="421.2" y1="113.6" x2="421.2" y2="126.2"/>
	<line class="st9" x1="655.7" y1="72.3" x2="655.7" y2="84.7"/>
	<line class="st9" x1="528.1" y1="72.3" x2="528.1" y2="84.7"/>
	<line class="st9" x1="691.8" y1="72.3" x2="691.8" y2="84.7"/>
	<line class="st10" x1="294.6" y1="113" x2="294.6" y2="125.5"/>
	<line class="st10" x1="349.6" y1="113" x2="349.6" y2="125.5"/>
	<line class="st10" x1="204.7" y1="113.3" x2="204.7" y2="125.9"/>
	<line class="st10" x1="23.2" y1="114.4" x2="23.2" y2="126.9"/>
</g>
<g id="textos">
	<g>
		<text transform="matrix(1 0 0 1 14.037 147.8613)" class="st2 st11 st12">Tala ilegal</text>
		<text transform="matrix(1 0 0 1 14.0369 158.3613)" class="st2 st11 st12">de bosques</text>
	</g>
	<g>
		<text transform="matrix(1 0 0 1 188.853 147.8613)" class="st2 st11 st12">Incendios</text>
	</g>
	<g>
		<rect x="248.4" y="140.4" class="st13" width="79.8" height="30.3"/>
		<text transform="matrix(1 0 0 1 257.8714 147.8623)" class="st2 st11 st12">Construcción de </text>
		<text transform="matrix(1 0 0 1 238.9286 158.3623)" class="st2 st11 st12">caminos y agricultura</text>
	</g>
	<g>
		<text transform="matrix(1 0 0 1 336.3093 147.8623)" class="st2 st11 st12">Plantaciones</text>
		<text transform="matrix(1 0 0 1 336.3096 158.3623)" class="st2 st11 st12">de café</text>
	</g>
	<g>
		<rect x="581.8" y="26.8" class="st13" width="83.3" height="31.7"/>
		<text transform="matrix(1 0 0 1 599.5753 34.2226)" class="st2 st11 st12">24 de octubre, día </text>
		<text transform="matrix(1 0 0 1 578.6758 44.7226)" class="st2 st11 st12">internacional del Gibón </text>
		<text transform="matrix(1 0 0 1 627.0495 55.3226)" class="st2 st11 st12">por la UICN</text>
	</g>
	<g>
		<rect x="141.8" y="27.5" class="st13" width="185" height="30.3"/>
		<text transform="matrix(1 0 0 1 146.8228 35.0181)" class="st2 st11 st12">Se prohíbe el comercio internacional de Siamangs por </text>
		<text transform="matrix(1 0 0 1 165.5291 45.5181)" class="st2 st11 st12">la convención sobre el Comercio Internacional de </text>
		<text transform="matrix(1 0 0 1 241.2312 56.118)" class="st2 st11 st12">Especies Amenazadas (CITES)</text>
	</g>
	<g>
		<rect x="368.5" y="26.7" class="st13" width="171.3" height="31.8"/>
		<rect x="383" y="26.6" class="st13" width="167.2" height="30.8"/>
		<text transform="matrix(1 0 0 1 392.9131 34.1558)" class="st14"><tspan x="0" y="0" class="st2 st11 st12">Se declara </tspan><tspan x="43.5" y="0" class="st2 st3 st12">en peligro de extinción </tspan><tspan x="135" y="0" class="st2 st11 st12">por la </tspan><tspan x="-8.7" y="10.5" class="st2 st11 st12">Unión Internacional de Conservación de la </tspan><tspan x="86.1" y="21.1" class="st2 st11 st12">Naturaleza (UICN)  </tspan><tspan x="161.6" y="21.1" class="st2 st3 st12"> </tspan><tspan x="163.8" y="21.1" class="st2 st11 st12"> </tspan></text>
	</g>
	<g>
		<rect x="680.8" y="16.7" class="st13" width="103.3" height="41.8"/>
		<text transform="matrix(1 0 0 1 680.834 24.1622)" class="st2 st11 st12">La Unión Europea endurece </text>
		<text transform="matrix(1 0 0 1 680.834 34.6622)" class="st2 st11 st12">las regulaciones a las </text>
		<text transform="matrix(1 0 0 1 680.834 45.2622)" class="st2 st11 st12">industrias del aceite de </text>
		<text transform="matrix(1 0 0 1 680.834 55.7622)" class="st2 st11 st12">palma en Indonesia y Malasia</text>
	</g>
	<g>
		<rect x="392.8" y="140.4" class="st13" width="56.9" height="19.8"/>
		<text transform="matrix(1 0 0 1 408.9621 147.8623)" class="st2 st11 st12">Extracción de</text>
		<text transform="matrix(1 0 0 1 408.9621 158.3623)" class="st2 st11 st12">aceite de palma</text>
	</g>
</g>
</svg>
