<?xml version="1.0" encoding="utf-8"?>
<!-- Generator: Adobe Illustrator 25.3.1, SVG Export Plug-In . SVG Version: 6.00 Build 0)  -->
<svg version="1.1" id="Capa_1" xmlns="http://www.w3.org/2000/svg" xmlns:xlink="http://www.w3.org/1999/xlink" x="0px" y="0px"
	 viewBox="0 0 631 415" style="enable-background:new 0 0 631 415;" xml:space="preserve">
<style type="text/css">
	.st0{fill:none;}
	.st1{fill:#1E1E1C;}
	.st2{font-family:'Roboto-Regular', sans-serif;}
	.st3{font-size:18px;}
	.st4{fill:none;stroke:#95C11F;stroke-width:1.381;stroke-miterlimit:10;}
	.st5{fill:none;stroke:#979392;stroke-width:1.4284;stroke-linecap:round;stroke-linejoin:round;stroke-miterlimit:10;}
	.st6{fill:none;stroke:#1E1E1C;stroke-width:1.4284;stroke-miterlimit:10;}
	.st7{fill:#95C11F;}
	.st8{fill:none;stroke:#95C11F;stroke-width:1.2769;stroke-linecap:round;stroke-miterlimit:10;}
	.st9{fill:none;stroke:#1E1E1C;stroke-width:1.4284;stroke-linecap:round;stroke-linejoin:round;stroke-miterlimit:10;}
	.st10{fill:none;stroke:#1D1E1C;stroke-width:1.4284;stroke-miterlimit:10;}
	.st11{font-family:'Roboto', sans-serif;}
</style>
<g>
	<rect x="59.1" y="363.9" class="st0" width="137" height="29.5"/>
	<text transform="matrix(1 0 0 1 70.9348 378.9195)" class="st1 st2 st3">Mano humana</text>
</g>
<g>
	<rect x="253.6" y="362.7" class="st0" width="137" height="29.5"/>
	<text transform="matrix(1 0 0 1 300.5344 377.692)" class="st1 st11 st3">Mano </text>
</g>
<g>
	<rect x="438.3" y="362.3" class="st0" width="137" height="29.5"/>
	<text transform="matrix(1 0 0 1 494.029 377.2779)" class="st1 st11 st3">Pie</text>
</g>
<path class="st4" d="M562.3,372.2"/>
<g>
	<g>
		<path class="st5" d="M91,351.2c0,0,2.3-10,1.9-19.7s-5.4-23.6-5.4-23.6S68.5,288.6,65,280.8s-7-13.9-8.5-23.2
			c-1.5-9.3-8.5-22.8-8.5-27.1s4.1-21.6,3.8-29.9c-0.4-8.4,1.1-16.4,10.2-12.4c9.1,4,13.8,11.3,13.5,17.8s-2.5,13.8-2.9,17.4
			c-0.4,3.6,3.3,10.5,4.4,16c1.1,5.4-0.7,2.8,2.5,8.9c3.3,6,5.8,6,6.9,3.1s1.4-56.3,1.4-56.3s1.8-25.8,1.8-30.2s0.7-20.4,0-26.5
			s0.7-24.7,0.7-24.7s1.1-9.1,9.8-9.8c11.2-0.9,9.1,17.1,9.1,17.1s-2.2,9.1-2.2,14.2s1.1,16.7,0.7,20.4c-0.4,3.6,0,4.7,0,14.5
			s-0.7,16.5,1.1,16.2c1.8-0.2,6.9,0.5,6.2-4.2c-0.7-4.7-0.7-28.7-1.4-33.1c-0.7-4.4,0.4-33.1,1.1-36.3c0.7-3.3,0.7-23.3,0.7-23.3
			s2.2-10.5,9.8-10.5c10.5,0,12.3,9.8,12.3,9.8s-0.7,14.9-2.5,21.1c-1.8,6.2,0.4,13.8,0,21.8s-0.4,14.5-0.7,19.3
			c-0.4,4.7,0.4,30.5,0.4,30.5s2.5,2.9,4,1.1c1.4-1.8,3.6-22.2,3.3-32s1.4-33.8,0.4-37.4s-1.1-12.7-1.1-16.3s1.4-14.2,9.8-14.5
			c10.5-0.5,10.9,14.2,10.9,14.2s0.4,9.4,0.4,15.6s1.1,14.9,1.1,20c0,5.1-1.4,13.4-1.4,18.5s1.1,13.4,1.1,17.4s-1.4,16.2,0,18.4
			s6.5,5.6,7.6,3.4c1.1-2.2,2-9.8,2.6-23.3s1.6-35.3,1.6-35.3s-1.6-17.8,9.7-17.4c11.9,0.4,10.1,12.8,10.1,12.8s-1.2,17.8-1.9,23.6
			c-0.8,5.8-1.2,47.2-0.4,51.8c0.8,4.6,4.2,12.4,5.4,21.7s5.4,25.9,4.6,40.2s-3.1,32.4-10.1,44s-5.8,12.8-8.9,22.9
			s-2.7,20.5-2.7,20.5"/>
		<path class="st5" d="M91,351.2"/>
		<path class="st5" d="M180.7,351.2"/>
		<path class="st5" d="M193.9,228.6c0,0-26.5,1.2-41.8-2.9s-20.3-9.1-26.9-15s-14.6-16.7-14.6-16.7"/>
		<path class="st5" d="M91.8,221c0,0,33.1,5.8,49.8,16.4c16.7,10.5,29.1,19.3,29.1,19.3"/>
		<path class="st5" d="M91.8,221c0,0,33.5,12.4,46.1,27.4c9.4,11.2,14.5,29.7,14.4,40.9c-0.2,11.3-2.4,18.5-2.4,18.5"/>
		<path class="st5" d="M72.5,223.5c0,0-1.8,5.1-5.8,5.3c-4,0.2-9.5,0-9.5,0"/>
		<path class="st5" d="M77.3,243.5c0,0-2.2,8-8.1,11.3"/>
		<path class="st5" d="M81.4,251.4c0,0-1.5,1.9-4.1,11"/>
		<path class="st5" d="M161.9,150.5c0,0-4.4,1.1-9.6,0"/>
		<path class="st5" d="M162.3,112c0,0-0.5,3.3-5.2,3.3s-8.8,0-8.8,0"/>
		<path class="st5" d="M193.6,140c0,0-2.6,2.1-6.3,2.1s-3.6,0-3.6,0"/>
		<path class="st5" d="M192,167.9c0,0-2.1,1.9-5.8,1.5"/>
		<path class="st5" d="M192.3,201.9c0,0-0.9-0.3-8.6-3.5c-7.6-3.2-7.6-3.2-7.6-3.2"/>
		<path class="st5" d="M134.3,150.9c0,0-4.3,0.6-9.1,0.1c-4.8-0.5-4.8-0.5-4.8-0.5"/>
		<path class="st5" d="M134.3,113.6c0,0-3.9,2.4-9.1,1.6s-5.1-0.7-5.1-0.7"/>
		<path class="st5" d="M107.2,140c0,0,0.6,0.8-4.2,0s-6.9,0-6.9,0"/>
		<path class="st5" d="M107.2,161.8c0,0-1.8,4.4-5.5,4.4s-5.5,0-5.5,0"/>
		<path class="st5" d="M103.8,188.3c0,0-4.4,1.4-7.6,4"/>
		<path class="st5" d="M131.2,184.6c0,0-0.5,1.2-6,1.7s-5.5,0.5-5.5,0.5"/>
		<path class="st5" d="M158.8,184.6c0,0-3.4,1.4-8.5,0s-5.1-1.4-5.1-1.4"/>
		<path class="st5" d="M184.6,326.4c0,0-2,2-11.1,2.4c-13.6,0.6-25.9-1.5-21.2-1.4"/>
		<path class="st5" d="M116.1,322c0,0-12-3.3-18.2-7.3s-10.5-6.9-10.5-6.9"/>
		<path class="st5" d="M54.6,188.3c0,0,1.8,3.3,2.6,10.3s0,10.3,0,10.3h-6"/>
	</g>
</g>
<g>
	<g>
		<g>
			<path class="st6" d="M486.1,147.8c0,0-1.8,2.7-5.8,3.4s-8.4,0-8.4,0"/>
			<polygon class="st7" points="484.5,126.2 490.6,124.7 491.7,129.8 491.9,136.5 490.6,145.6 490.1,149.6 490.6,160.4 490.5,167.1 
				488.6,172.6 487.2,173.2 486.1,172.6 487.2,164.6 486.1,157 484.4,152.4 484.4,150.3 486.1,145 483.7,139.6 			"/>
			<path class="st6" d="M425.6,178.6c0,9.1-2.8,14.7-10.8,14.7s-14.4-7.4-14.4-16.5s6.4-16.5,14.4-16.5S425.6,169.6,425.6,178.6z"/>
			<path class="st6" d="M400.8,180c0,0-2.9,30.1-2.9,34s1.9,15.7,9.4,20.9s34.1,24.8,40.2,31.8s19.1,26.9,23.1,38.2
				c3.9,11.4,6.2,31.4,19,37.9c12.8,6.5,16.2,7,23.2,6.6c5.7-0.4,16.1-5.3,20-13.5c3.9-8.3,1.7-34.8,1.7-41.3s-4.1-37.6,3.4-57.1
				s6.3-20.6,7.4-26.9c1.1-6.3,0.7-10.1,0-12.9s0.8-8.5,0.8-15.4s-0.6-8.3-0.8-12.9c-0.2-4.5-0.4-6.4,0.8-9.7s0-7.4-0.2-9.9
				c-0.1-2.5,0.4-6,0-8.8"/>
			<ellipse class="st6" cx="475.2" cy="113.7" rx="9.2" ry="11.4"/>
			<ellipse class="st6" cx="499.8" cy="109.4" rx="9.2" ry="11.4"/>
			<ellipse class="st6" cx="521.5" cy="113.1" rx="9.2" ry="10.2"/>
			<ellipse class="st6" cx="536.8" cy="141" rx="9.2" ry="10.2"/>
			<path class="st6" d="M422.7,190.7c0,0,7.2,3,8.8,7.7c2.4,7.2-2.3,12.4-2.3,12.4s8.1-4,11.9-2.8c7.2,2.4,6.4,9.8,6.4,9.8
				s8.6-1,11.1,3s2.5,4,2.5,4s-0.2-0.3,1.7-2.4c1.9-2.1-2.7-7-2.7-12c0.1-5.8,0.2-13.9,0.2-13.9s-1.9-3.7-1.8-7.8
				c0.4-9.5,6.9-13.9,6.6-14.6c-1-2.2-0.5-6.2,0.7-9.6c1.8-4.8,1-12.4,0-18.2c-0.5-2.9-1.8-10.1-1.3-14.5s0.8-2.9,1.3-8.8
				s0-9.5,0-9.5"/>
			<path class="st6" d="M483.7,118.1c0,0-0.1,2.5,0.7,7c0.8,4.5-0.5,12.3,0,15.6c0.5,3.3,2.8,4.8,1.8,7.1c-1,2.3-2.3,1.5-1.8,4.6
				c0.5,3.2,2.7,7.7,2.9,12.2c0.1,4.5-2.7,9.1,0,8.6c2.7-0.5,3.3-3.8,3.4-8.6c0.1-4.8-0.3-9.6,0-12.2s-1.6-1.8,0-6.8
				s1.3-11.1,1.1-15.9s-2.9-7.4-1.1-10.5s0-9.8,0-9.8"/>
			<path class="st6" d="M507.6,115.5c0,0-0.2,1.3,0,7.7c0.2,6.4,1.1,14.7-0.1,20.5c-1.2,5.8-1.7,10.7-1.7,15.1s1.5,12.7,2.3,14.4
				s2,2.5,2,2.5s-1-9.6,0-13.7s2.4-4.8,2.2-7.4s-0.5-8.7,0-10.7c0.6-2-1.3-7.8,0-10.8s1.9-6.4,2.1-9.9s-2.1-10.2-2.1-10.2"/>
			<path class="st6" d="M527.6,120.6c0,0-1.9,7.8-1.4,12.5c0.5,4.8,1.6,9.1,0.7,15.9s-0.8,10.1-0.8,14.6c0.1,4.5,3.1,11.8,3.1,14.8
				s0.6-6.3,1.5-11.3s-1.2-9.4-1.2-12.5c0-3.1-0.3-8-0.3-8"/>
			<path class="st6" d="M410.6,223.8c0,0,5-5.8,8.3-7.8s10.3-5.3,10.3-5.3s1.5,4.3-2.3,11.4s-6,10.4-6,10.4"/>
			<path class="st6" d="M432,236.7"/>
			<path class="st6" d="M447.6,217.8c0,0-3.8,9.1-7.6,13.6c-3.8,4.5-8.1,5.3-8.1,5.3"/>
			<path class="st6" d="M461.2,224.8c0,0,3.8,5.5,6.5,19.4s4.2,31.5,4.2,31.5"/>
			<path class="st6" d="M462.9,222.4c0,0,24.1,0,26.7,36.7c0.5,6.8-5,11.5-5,11.5"/>
			<path class="st6" d="M461.2,280.3c0,0,7.2,0,18.4-6.3c11.7-6.6,21.8-16,21.9-15.4"/>
			<path class="st6" d="M521.9,224.8c0,0-8.8,10.6-11.8,23.4c-3,12.9-4.3,26.2-4.3,26.2"/>
			<path class="st6" d="M464.7,285.3c0,0,17.4-10.6,30.5-9.6c13.1,1,21.2,5.8,24.4,7.3s7,1.8,8.8,1.3"/>
			<path class="st6" d="M474.9,227.3c0,0,11.5,7.7,25.1,9.4s21.9,2,21.9,2"/>
			<path class="st6" d="M460.4,196.6c0,0,15.9-2,36.1,6.3s32.1,17.7,35.4,18.7"/>
			<path class="st6" d="M465.3,174.2c0,0,13.2-2.5,21.7,0c8.5,2.5,14,3.2,17,11.8c3,8.6,1.8,11.6,1.8,11.6"/>
			<path class="st6" d="M527.6,204.1c0,0,4.4-13.5-4.5-19c-9.7-6-19.3-1.2-19.3-1.2"/>
			<path class="st6" d="M484.4,140.7c0,0-2.3,0.2-7.6,0.7s-6.7,1.5-6.7,1.5"/>
			<path class="st6" d="M507.5,143.7c0,0-1.8-2.8-5-2.7c-3.2,0.1-7.4,0.8-7.4,0.8"/>
			<path class="st6" d="M490.6,152.4c0,0,6.7,0.8,10.7-1.2s5.1-1.5,5.1-1.5"/>
			<path class="st6" d="M512.3,154.7c0,0,3.6,2.5,6.4,1.8c2.8-0.8,4.5-3.9,4.5-3.9"/>
			<path class="st6" d="M512.3,144c0,0,4.9,2.6,7.5,2s3.3-1.6,3.3-1.6"/>
			<path class="st6" d="M469.2,105c0,0,7.6-7.8,9.8-7c2.2,0.8,3.5,8.9,3.5,8.9"/>
			<path class="st6" d="M496.2,99c0,0,4.4-5.8,6.4-5.3c2.1,0.5,3.8,7.9,3.8,7.9"/>
			<path class="st6" d="M517,104.2c0,0,4-6.3,6.2-6.1c2.6,0.3,5.7,8.9,5.7,8.9"/>
			<path class="st6" d="M532,132.3c0,0,3.6-7.4,5.9-7.2c2.9,0.2,6.1,9.7,6.1,9.7"/>
		</g>
	</g>
</g>
<path class="st8" d="M561.2,157.7"/>
<g>
	<path class="st9" d="M290.8,163.3c0,0-4.6-4.8,0-13.7c4.6-8.9,7.9-12.4,10.4-11.2s6.1,16.2,3.8,20.8c-2.3,4.6-1.8,24.1-2.3,26.1
		c-0.5,2,0.5,15.5,0.2,17c-0.2,1.5,2,22.8,2.8,24.9c0.8,2,1.8-20.6,2.6-21.6c0.8-1-0.5-17,0-18c0.5-1,4.5-27.1,5.6-31.5
		c1-4,0.8-2.8,0-5.1c-0.5-1.4,0.4-8.6,1.1-9.9c0.7-1.3,4-9.4,7.5-10.4s6.4,18.5,3.8,22.6s-2.3,33-2.3,33.8s-1,16-1,16
		s0,25.9,1.8,27.4s2.7-14.7,2.5-18s0-17.3,1-24.6c1-7.4,3-20.6,3-21.8s-2.3-4.3-1.3-9.4c1-5.1,5.8-11.4,7.1-11.7
		c1.3-0.2,7.1,8.6,6.9,12.9c-0.2,4.3-1,10.7-1.5,11.7c-0.5,1-0.5,28.4-0.5,29.9s1,30.2,2,32.7c1,2.5,2.3,6.6,2.5,7.9
		c0.2,1.3-2-10.1-1.3-15c0.8-4.8,2.5-26.9,2.8-28.4s-3-7.4-1-12.9c2-5.6,4.8-7.1,6.1-5.8s5.1,6.6,4.6,10.9s-0.2,26.2,0,28
		s0.5,7.1,0,7.8s0.6,22.1,0.3,24.1s-3.9,27.9-4.1,29.2s-2.3,13-2.8,16c-0.5,3,0.8,22.3,0.8,24.1c0,1.8,0,19.3-0.8,23.4
		c-0.5,2.9-4.1,7.9-7.6,9.1c-4.5,1.7-14-3.3-17.5-4.1c-3.5-0.8-8.6,3.3-14.7,2.8c-6.1-0.5-14.7-8.4-25.6-21.1
		c-10.9-12.7-29.2-34.3-29.7-37.8c-0.5-3.5,0.8-14.5,0-16.2c-0.8-1.8-3.3-7.6-2.5-11.9s8.4-3.5,9.9-2.3c1.5,1.3,6.9,7.1,6.4,12.7
		c-0.5,5.6-1.3,4.1-0.5,5.6c0.8,1.5,7.6,9.9,7.4,12.7s5.3,2.3,6.9,4.6s10.9,4.1,11.9,7.1s6.1,0.5,8.1,2.5s-4.8-13.5-5.1-15
		c-0.2-1.5-7.6-18.8-7.4-20.3c0.2-1.5-4.6-12.2-4.6-15.7c0-3.6,0.5-18.8,1.8-21.8s-4.3-23.6-3.5-27.9c0.8-4.3,1.3-16,1.8-16.8
		S287.5,168.4,290.8,163.3z"/>
	<path class="st9" d="M290.8,163.3c3.2,1.9,4.6,1.9,7.6,1.6s5.8-3.2,5.8-3.2"/>
	<path class="st9" d="M315,153.7c0,0,0.9,3.8,4.6,3.4s6.9-3.6,6.9-3.6"/>
	<path class="st9" d="M331.2,168.1c0,0,1.4,3.5,4,3.9c2.6,0.4,7,0.3,7.2-1"/>
	<path class="st9" d="M348.2,196.9c0,0,2.2,2.2,4,2.2c1.8,0,5.4-3.2,5.4-3.2"/>
	<path class="st9" d="M288.8,187.8c2.2,0.6,8.9,0.4,10.7,0"/>
	<path class="st9" d="M311.5,189.1c2.2,0.6,8.9,0.4,10.7,0"/>
	<path class="st9" d="M328.9,214.1c2.2,0.6,8.9,0.4,10.7,0"/>
	<path class="st9" d="M311.5,205c2.2,0.6,8.9,0.4,10.7,0"/>
	<path class="st9" d="M347.5,224.8c1.8,0.7,0.8,0.4,9.3,0"/>
	<path class="st9" d="M346.9,218.1c2.2,0.6,8.9,0.4,10.7,0"/>
	<path class="st9" d="M329.8,189.1c2.2,0.6,8.9,0.4,10.7,0"/>
	<path class="st9" d="M286.9,203.8c3.1,0.3,12.5,0.2,15.1,0"/>
	<path class="st9" d="M290.8,233.9c5.9-2.2,14.5-2.6,15-2.1c1.7,1.8,2.8,5.1,1.9,7.8c-1.2,3.5-6.2,12.6-5.7,13.4"/>
	<path class="st9" d="M305.8,231.8c6.9-1.7,18.2,1.6,18.2,1.6s2.6-0.2,11.1,3.5c8.5,3.7,12.8,7.3,13.5,7.9c0.8,0.7,4.1,2.7,5.6,5.2"
		/>
	<path class="st9" d="M325.4,233.5c0,0-3.8,19.9,0,26.4"/>
	<path class="st9" d="M294.2,269.3c0,0,5.3-1.5,13.9,0c8.6,1.5,31.4,8.4,36.3,9.2"/>
	<path class="st9" d="M322.1,265.4c0,0,2.4,18.1,4.2,20.3"/>
	<path class="st9" d="M309.9,287.9c0,0,31.5,6.5,34.4,6.2"/>
	<path class="st9" d="M349.3,287.9c0,0-14,23.5-15,26.8c-1,3.2-7.2,20.1-5.4,25c1.8,5,6.2,9.2,6.2,9.2"/>
	<path class="st9" d="M348.2,314.4c0,0-27.3,5.2-29,6.9"/>
	<path class="st9" d="M350.3,323.8c0,0-37.9,14.1-44.5,21.1"/>
	<path class="st9" d="M303.5,305.2c0,0,11.2,13.4,13.3,18.6c2,5.2,6.9,13.4,5.4,18.6"/>
	<path class="st9" d="M269.3,278.3c0,0-0.4,1.5-3.8,1.6s-6.5-1.6-6.5-1.6"/>
	<path class="st9" d="M278.1,293c0,0-5.1,5.9-7.1,6.4c-2,0.5-5.5-1.3-6.9-2.9s-3.4-2.9-3.7-6.2c-0.3-3.3-0.2-6.5,0.5-6.8"/>
	<path class="st9" d="M285.7,298.4c0,0-1.6,3.6-3.6,6.9s-2,5.9-4,5.7c-2-0.2-1.9-0.3-4.3-2.9c-2.4-2.6-3.4-5-3.4-5l-0.6-1.6"/>
	<path class="st9" d="M297.4,304.2c-0.2,0.8,1.1,3.6-1.5,9.5c-2.6,5.9-5.9,7.6-5.9,7.6"/>
	<path class="st9" d="M303.5,142.3"/>
	<path class="st9" d="M296.2,140.9"/>
	<path class="st9" d="M320.7,133.8"/>
	<path class="st9" d="M319.4,134.3c-0.3-0.7,4-3.4,6.1,0.4"/>
	<path class="st9" d="M334.3,148.5c-0.3-0.7,4-3.4,6.1,0.4"/>
	<path class="st9" d="M349.2,180.8c-0.3-0.7,4-3.4,6.1,0.4"/>
	<path class="st9" d="M296.2,140.9c-0.3-0.7,4.9-3.1,7,0.7"/>
</g>
<line class="st10" x1="50.7" y1="351" x2="586.4" y2="351"/>
</svg>
