<?xml version="1.0" encoding="utf-8"?>
<!-- Generator: Adobe Illustrator 25.3.1, SVG Export Plug-In . SVG Version: 6.00 Build 0)  -->
<svg version="1.1" id="Capa_1" xmlns="http://www.w3.org/2000/svg" xmlns:xlink="http://www.w3.org/1999/xlink" x="0px" y="0px"
	 viewBox="0 0 1000 300" style="enable-background:new 0 0 1000 300;" xml:space="preserve">
<style type="text/css">
	.st0{fill:none;}
	.st1{fill:none;stroke:#878787;stroke-width:0.5;stroke-linecap:round;stroke-miterlimit:10;}
	.st2{fill:none;stroke:#5F8960;stroke-width:0.5;stroke-linecap:round;stroke-miterlimit:10;}
	.st3{fill:none;stroke:#006633;stroke-width:0.5;stroke-linecap:round;stroke-miterlimit:10;}
	.st4{fill:none;stroke:#95C11F;stroke-width:0.4;stroke-linecap:round;stroke-miterlimit:10;}
	.st5{fill:#D2E7F9;stroke:url(#SVGID_3_);stroke-width:1.495;stroke-miterlimit:10;}
	.st6{fill:#FFFFFF;}
	.st7{opacity:0.8;}
	.st8{opacity:0.8;fill:#FFFFFF;enable-background:new    ;}
	.st9{fill:#1E1E1C;}
	.st10{fill:#1D1D1B;}
	.st11{font-family:'Roboto-Regular', sans-serif;}
	.st12{font-size:12px;}
	.st13{font-size:10px;}
	.st14{fill:url(#SVGID_4_);}
	.st15{font-family:'Roboto', sans-serif;}
	.st16{font-size:12px;}
	.st17{fill:url(#SVGID_5_);stroke:url(#SVGID_6_);stroke-miterlimit:10;}
	.st18{fill:url(#SVGID_7_);}

*{transition:all ease 0.5s}
	.enrojecido {
	fill: #95C11F;
}
	.enrojecido:hover {
	fill: #878787;
	transition: all ease 0.5s;
	cursor: pointer;

</style>
<pattern  y="300" width="41.3" height="42.2" patternUnits="userSpaceOnUse" id="Motivo_nuevo_3" viewBox="47 -42.5 41.3 42.2" style="overflow:visible;">
	<g>
		<rect x="47" y="-42.5" class="st0" width="41.3" height="42.2"/>
		<g>
			<rect x="47" y="-42.5" class="st0" width="41.3" height="42.2"/>
			<g>
				<g>
					<line class="st1" x1="82.9" y1="-36" x2="134.9" y2="-36"/>
					<line class="st1" x1="82.9" y1="-34" x2="134.9" y2="-34"/>
					<line class="st1" x1="82.9" y1="-32.2" x2="134.9" y2="-32.2"/>
					<line class="st1" x1="82.9" y1="-30.1" x2="134.9" y2="-30.1"/>
					<line class="st1" x1="82.9" y1="-28.2" x2="134.9" y2="-28.2"/>
					<line class="st1" x1="82.9" y1="-26.2" x2="134.9" y2="-26.2"/>
					<line class="st1" x1="82.9" y1="-24.4" x2="134.9" y2="-24.4"/>
					<line class="st1" x1="82.9" y1="-22.4" x2="134.9" y2="-22.4"/>
					<line class="st1" x1="82.9" y1="-20.4" x2="134.9" y2="-20.4"/>
					<line class="st1" x1="82.9" y1="-18.5" x2="134.9" y2="-18.5"/>
					<line class="st1" x1="82.9" y1="-16.5" x2="134.9" y2="-16.5"/>
					<line class="st1" x1="82.9" y1="-14.5" x2="134.9" y2="-14.5"/>
					<line class="st1" x1="82.9" y1="-12.5" x2="134.9" y2="-12.5"/>
					<line class="st1" x1="82.9" y1="-10.7" x2="134.9" y2="-10.7"/>
					<line class="st1" x1="82.9" y1="-8.7" x2="134.9" y2="-8.7"/>
					<line class="st1" x1="82.9" y1="-6.8" x2="134.9" y2="-6.8"/>
					<line class="st1" x1="82.9" y1="-38" x2="134.9" y2="-38"/>
					<line class="st1" x1="82.9" y1="-40.2" x2="134.9" y2="-40.2"/>
					<line class="st1" x1="82.9" y1="-4.8" x2="134.9" y2="-4.8"/>
					<line class="st1" x1="82.9" y1="-2.5" x2="134.9" y2="-2.5"/>
				</g>
			</g>
			<g>
				<g>
					<line class="st1" x1="83" y1="-36" x2="134.9" y2="-36"/>
					<line class="st1" x1="83" y1="-34" x2="134.9" y2="-34"/>
					<line class="st1" x1="83" y1="-32.2" x2="134.9" y2="-32.2"/>
					<line class="st1" x1="83" y1="-30.1" x2="134.9" y2="-30.1"/>
					<line class="st1" x1="83" y1="-28.2" x2="134.9" y2="-28.2"/>
					<line class="st1" x1="83" y1="-26.2" x2="134.9" y2="-26.2"/>
					<line class="st1" x1="83" y1="-24.4" x2="134.9" y2="-24.4"/>
					<line class="st1" x1="83" y1="-22.4" x2="134.9" y2="-22.4"/>
					<line class="st1" x1="83" y1="-20.4" x2="134.9" y2="-20.4"/>
					<line class="st1" x1="83" y1="-18.5" x2="134.9" y2="-18.5"/>
					<line class="st1" x1="83" y1="-16.5" x2="134.9" y2="-16.5"/>
					<line class="st1" x1="83" y1="-14.5" x2="134.9" y2="-14.5"/>
					<line class="st1" x1="83" y1="-12.5" x2="134.9" y2="-12.5"/>
					<line class="st1" x1="83" y1="-10.7" x2="134.9" y2="-10.7"/>
					<line class="st1" x1="83" y1="-8.7" x2="134.9" y2="-8.7"/>
					<line class="st1" x1="83" y1="-6.8" x2="134.9" y2="-6.8"/>
					<line class="st1" x1="83" y1="-38" x2="134.9" y2="-38"/>
					<line class="st1" x1="83" y1="-40.2" x2="134.9" y2="-40.2"/>
					<line class="st1" x1="83" y1="-4.8" x2="134.9" y2="-4.8"/>
					<line class="st1" x1="83" y1="-2.5" x2="134.9" y2="-2.5"/>
					<line class="st1" x1="83" y1="-42.5" x2="134.9" y2="-42.5"/>
				</g>
				<g>
					<line class="st1" x1="41.5" y1="-36" x2="93.6" y2="-36"/>
					<line class="st1" x1="41.5" y1="-34" x2="93.6" y2="-34"/>
					<line class="st1" x1="41.5" y1="-32.2" x2="93.6" y2="-32.2"/>
					<line class="st1" x1="41.5" y1="-30.1" x2="93.6" y2="-30.1"/>
					<line class="st1" x1="41.5" y1="-28.2" x2="93.6" y2="-28.2"/>
					<line class="st1" x1="41.5" y1="-26.2" x2="93.6" y2="-26.2"/>
					<line class="st1" x1="41.5" y1="-24.4" x2="93.6" y2="-24.4"/>
					<line class="st1" x1="41.5" y1="-22.4" x2="93.6" y2="-22.4"/>
					<line class="st1" x1="41.5" y1="-20.4" x2="93.6" y2="-20.4"/>
					<line class="st1" x1="41.5" y1="-18.5" x2="93.6" y2="-18.5"/>
					<line class="st1" x1="41.5" y1="-16.5" x2="93.6" y2="-16.5"/>
					<line class="st1" x1="41.5" y1="-14.5" x2="93.6" y2="-14.5"/>
					<line class="st1" x1="41.5" y1="-12.5" x2="93.6" y2="-12.5"/>
					<line class="st1" x1="41.5" y1="-10.7" x2="93.6" y2="-10.7"/>
					<line class="st1" x1="41.5" y1="-8.7" x2="93.6" y2="-8.7"/>
					<line class="st1" x1="41.5" y1="-6.8" x2="93.6" y2="-6.8"/>
					<line class="st1" x1="41.5" y1="-38" x2="93.6" y2="-38"/>
					<line class="st1" x1="41.5" y1="-40.2" x2="93.6" y2="-40.2"/>
					<line class="st1" x1="41.5" y1="-4.8" x2="93.6" y2="-4.8"/>
					<line class="st1" x1="41.5" y1="-2.5" x2="93.6" y2="-2.5"/>
				</g>
			</g>
			<g>
				<g>
					<line class="st1" x1="83.1" y1="-36" x2="134.9" y2="-36"/>
					<line class="st1" x1="83.1" y1="-34" x2="134.9" y2="-34"/>
					<line class="st1" x1="83.1" y1="-32.2" x2="134.9" y2="-32.2"/>
					<line class="st1" x1="83.1" y1="-30.1" x2="134.9" y2="-30.1"/>
					<line class="st1" x1="83.1" y1="-28.2" x2="134.9" y2="-28.2"/>
					<line class="st1" x1="83.1" y1="-26.2" x2="134.9" y2="-26.2"/>
					<line class="st1" x1="83.1" y1="-24.4" x2="134.9" y2="-24.4"/>
					<line class="st1" x1="83.1" y1="-22.4" x2="134.9" y2="-22.4"/>
					<line class="st1" x1="83.1" y1="-20.4" x2="134.9" y2="-20.4"/>
					<line class="st1" x1="83.1" y1="-18.5" x2="134.9" y2="-18.5"/>
					<line class="st1" x1="83.1" y1="-16.5" x2="134.9" y2="-16.5"/>
					<line class="st1" x1="83.1" y1="-14.5" x2="134.9" y2="-14.5"/>
					<line class="st1" x1="83.1" y1="-12.5" x2="134.9" y2="-12.5"/>
					<line class="st1" x1="83.1" y1="-10.7" x2="134.9" y2="-10.7"/>
					<line class="st1" x1="83.1" y1="-8.7" x2="134.9" y2="-8.7"/>
					<line class="st1" x1="83.1" y1="-6.8" x2="134.9" y2="-6.8"/>
					<line class="st1" x1="83.1" y1="-38" x2="134.9" y2="-38"/>
					<line class="st1" x1="83.1" y1="-40.2" x2="134.9" y2="-40.2"/>
					<line class="st1" x1="83.1" y1="-4.8" x2="134.9" y2="-4.8"/>
					<line class="st1" x1="83.1" y1="-2.5" x2="134.9" y2="-2.5"/>
				</g>
				<g>
					<line class="st1" x1="41.6" y1="-36" x2="93.7" y2="-36"/>
					<line class="st1" x1="41.6" y1="-34" x2="93.7" y2="-34"/>
					<line class="st1" x1="41.6" y1="-32.2" x2="93.7" y2="-32.2"/>
					<line class="st1" x1="41.6" y1="-30.1" x2="93.7" y2="-30.1"/>
					<line class="st1" x1="41.6" y1="-28.2" x2="93.7" y2="-28.2"/>
					<line class="st1" x1="41.6" y1="-26.2" x2="93.7" y2="-26.2"/>
					<line class="st1" x1="41.6" y1="-24.4" x2="93.7" y2="-24.4"/>
					<line class="st1" x1="41.6" y1="-22.4" x2="93.7" y2="-22.4"/>
					<line class="st1" x1="41.6" y1="-20.4" x2="93.7" y2="-20.4"/>
					<line class="st1" x1="41.6" y1="-18.5" x2="93.7" y2="-18.5"/>
					<line class="st1" x1="41.6" y1="-16.5" x2="93.7" y2="-16.5"/>
					<line class="st1" x1="41.6" y1="-14.5" x2="93.7" y2="-14.5"/>
					<line class="st1" x1="41.6" y1="-12.5" x2="93.7" y2="-12.5"/>
					<line class="st1" x1="41.6" y1="-10.7" x2="93.7" y2="-10.7"/>
					<line class="st1" x1="41.6" y1="-8.7" x2="93.7" y2="-8.7"/>
					<line class="st1" x1="41.6" y1="-6.8" x2="93.7" y2="-6.8"/>
					<line class="st1" x1="41.6" y1="-38" x2="93.7" y2="-38"/>
					<line class="st1" x1="41.6" y1="-40.2" x2="93.7" y2="-40.2"/>
					<line class="st1" x1="41.6" y1="-4.8" x2="93.7" y2="-4.8"/>
					<line class="st1" x1="41.6" y1="-2.5" x2="93.7" y2="-2.5"/>
					<line class="st1" x1="41.6" y1="-42.5" x2="93.7" y2="-42.5"/>
				</g>
				<g>
					<line class="st1" x1="0.2" y1="-36" x2="52.2" y2="-36"/>
					<line class="st1" x1="0.2" y1="-34" x2="52.2" y2="-34"/>
					<line class="st1" x1="0.2" y1="-32.2" x2="52.2" y2="-32.2"/>
					<line class="st1" x1="0.2" y1="-30.1" x2="52.2" y2="-30.1"/>
					<line class="st1" x1="0.2" y1="-28.2" x2="52.2" y2="-28.2"/>
					<line class="st1" x1="0.2" y1="-26.2" x2="52.2" y2="-26.2"/>
					<line class="st1" x1="0.2" y1="-24.4" x2="52.2" y2="-24.4"/>
					<line class="st1" x1="0.2" y1="-22.4" x2="52.2" y2="-22.4"/>
					<line class="st1" x1="0.2" y1="-20.4" x2="52.2" y2="-20.4"/>
					<line class="st1" x1="0.2" y1="-18.5" x2="52.2" y2="-18.5"/>
					<line class="st1" x1="0.2" y1="-16.5" x2="52.2" y2="-16.5"/>
					<line class="st1" x1="0.2" y1="-14.5" x2="52.2" y2="-14.5"/>
					<line class="st1" x1="0.2" y1="-12.5" x2="52.2" y2="-12.5"/>
					<line class="st1" x1="0.2" y1="-10.7" x2="52.2" y2="-10.7"/>
					<line class="st1" x1="0.2" y1="-8.7" x2="52.2" y2="-8.7"/>
					<line class="st1" x1="0.2" y1="-6.8" x2="52.2" y2="-6.8"/>
					<line class="st1" x1="0.2" y1="-38" x2="52.2" y2="-38"/>
					<line class="st1" x1="0.2" y1="-40.2" x2="52.2" y2="-40.2"/>
					<line class="st1" x1="0.2" y1="-4.8" x2="52.2" y2="-4.8"/>
					<line class="st1" x1="0.2" y1="-2.5" x2="52.2" y2="-2.5"/>
				</g>
			</g>
			<g>
				<g>
					<line class="st1" x1="41.8" y1="-36" x2="93.8" y2="-36"/>
					<line class="st1" x1="41.8" y1="-34" x2="93.8" y2="-34"/>
					<line class="st1" x1="41.8" y1="-32.2" x2="93.8" y2="-32.2"/>
					<line class="st1" x1="41.8" y1="-30.1" x2="93.8" y2="-30.1"/>
					<line class="st1" x1="41.8" y1="-28.2" x2="93.8" y2="-28.2"/>
					<line class="st1" x1="41.8" y1="-26.2" x2="93.8" y2="-26.2"/>
					<line class="st1" x1="41.8" y1="-24.4" x2="93.8" y2="-24.4"/>
					<line class="st1" x1="41.8" y1="-22.4" x2="93.8" y2="-22.4"/>
					<line class="st1" x1="41.8" y1="-20.4" x2="93.8" y2="-20.4"/>
					<line class="st1" x1="41.8" y1="-18.5" x2="93.8" y2="-18.5"/>
					<line class="st1" x1="41.8" y1="-16.5" x2="93.8" y2="-16.5"/>
					<line class="st1" x1="41.8" y1="-14.5" x2="93.8" y2="-14.5"/>
					<line class="st1" x1="41.8" y1="-12.5" x2="93.8" y2="-12.5"/>
					<line class="st1" x1="41.8" y1="-10.7" x2="93.8" y2="-10.7"/>
					<line class="st1" x1="41.8" y1="-8.7" x2="93.8" y2="-8.7"/>
					<line class="st1" x1="41.8" y1="-6.8" x2="93.8" y2="-6.8"/>
					<line class="st1" x1="41.8" y1="-38" x2="93.8" y2="-38"/>
					<line class="st1" x1="41.8" y1="-40.2" x2="93.8" y2="-40.2"/>
					<line class="st1" x1="41.8" y1="-4.8" x2="93.8" y2="-4.8"/>
					<line class="st1" x1="41.8" y1="-2.5" x2="93.8" y2="-2.5"/>
				</g>
				<g>
					<line class="st1" x1="0.4" y1="-36" x2="52.3" y2="-36"/>
					<line class="st1" x1="0.4" y1="-34" x2="52.3" y2="-34"/>
					<line class="st1" x1="0.4" y1="-32.2" x2="52.3" y2="-32.2"/>
					<line class="st1" x1="0.4" y1="-30.1" x2="52.3" y2="-30.1"/>
					<line class="st1" x1="0.4" y1="-28.2" x2="52.3" y2="-28.2"/>
					<line class="st1" x1="0.4" y1="-26.2" x2="52.3" y2="-26.2"/>
					<line class="st1" x1="0.4" y1="-24.4" x2="52.3" y2="-24.4"/>
					<line class="st1" x1="0.4" y1="-22.4" x2="52.3" y2="-22.4"/>
					<line class="st1" x1="0.4" y1="-20.4" x2="52.3" y2="-20.4"/>
					<line class="st1" x1="0.4" y1="-18.5" x2="52.3" y2="-18.5"/>
					<line class="st1" x1="0.4" y1="-16.5" x2="52.3" y2="-16.5"/>
					<line class="st1" x1="0.4" y1="-14.5" x2="52.3" y2="-14.5"/>
					<line class="st1" x1="0.4" y1="-12.5" x2="52.3" y2="-12.5"/>
					<line class="st1" x1="0.4" y1="-10.7" x2="52.3" y2="-10.7"/>
					<line class="st1" x1="0.4" y1="-8.7" x2="52.3" y2="-8.7"/>
					<line class="st1" x1="0.4" y1="-6.8" x2="52.3" y2="-6.8"/>
					<line class="st1" x1="0.4" y1="-38" x2="52.3" y2="-38"/>
					<line class="st1" x1="0.4" y1="-40.2" x2="52.3" y2="-40.2"/>
					<line class="st1" x1="0.4" y1="-4.8" x2="52.3" y2="-4.8"/>
					<line class="st1" x1="0.4" y1="-2.5" x2="52.3" y2="-2.5"/>
					<line class="st1" x1="0.4" y1="-42.5" x2="52.3" y2="-42.5"/>
				</g>
			</g>
			<g>
				<g>
					<line class="st1" x1="0.4" y1="-36" x2="52.5" y2="-36"/>
					<line class="st1" x1="0.4" y1="-34" x2="52.5" y2="-34"/>
					<line class="st1" x1="0.4" y1="-32.2" x2="52.5" y2="-32.2"/>
					<line class="st1" x1="0.4" y1="-30.1" x2="52.5" y2="-30.1"/>
					<line class="st1" x1="0.4" y1="-28.2" x2="52.5" y2="-28.2"/>
					<line class="st1" x1="0.4" y1="-26.2" x2="52.5" y2="-26.2"/>
					<line class="st1" x1="0.4" y1="-24.4" x2="52.5" y2="-24.4"/>
					<line class="st1" x1="0.4" y1="-22.4" x2="52.5" y2="-22.4"/>
					<line class="st1" x1="0.4" y1="-20.4" x2="52.5" y2="-20.4"/>
					<line class="st1" x1="0.4" y1="-18.5" x2="52.5" y2="-18.5"/>
					<line class="st1" x1="0.4" y1="-16.5" x2="52.5" y2="-16.5"/>
					<line class="st1" x1="0.4" y1="-14.5" x2="52.5" y2="-14.5"/>
					<line class="st1" x1="0.4" y1="-12.5" x2="52.5" y2="-12.5"/>
					<line class="st1" x1="0.4" y1="-10.7" x2="52.5" y2="-10.7"/>
					<line class="st1" x1="0.4" y1="-8.7" x2="52.5" y2="-8.7"/>
					<line class="st1" x1="0.4" y1="-6.8" x2="52.5" y2="-6.8"/>
					<line class="st1" x1="0.4" y1="-38" x2="52.5" y2="-38"/>
					<line class="st1" x1="0.4" y1="-40.2" x2="52.5" y2="-40.2"/>
					<line class="st1" x1="0.4" y1="-4.8" x2="52.5" y2="-4.8"/>
					<line class="st1" x1="0.4" y1="-2.5" x2="52.5" y2="-2.5"/>
				</g>
			</g>
			<g>
				<g>
					<line class="st1" x1="83" y1="-0.2" x2="134.9" y2="-0.2"/>
				</g>
			</g>
			<g>
				<g>
					<line class="st1" x1="41.6" y1="-0.2" x2="93.7" y2="-0.2"/>
				</g>
			</g>
			<g>
				<g>
					<line class="st1" x1="0.4" y1="-0.2" x2="52.3" y2="-0.2"/>
				</g>
			</g>
		</g>
	</g>
</pattern>
<pattern  y="300" width="41.3" height="42.2" patternUnits="userSpaceOnUse" id="SVGID_1_" viewBox="47 -42.5 41.3 42.2" style="overflow:visible;">
	<g>
		<rect x="47" y="-42.5" class="st0" width="41.3" height="42.2"/>
		<g>
			<rect x="47" y="-42.5" class="st0" width="41.3" height="42.2"/>
			<g>
				<rect x="47" y="-42.5" class="st0" width="41.3" height="42.2"/>
				<g>
					<line class="st2" x1="83.1" y1="-0.2" x2="135.2" y2="-0.2"/>
				</g>
				<g>
					<line class="st2" x1="41.6" y1="-0.2" x2="93.8" y2="-0.2"/>
				</g>
				<g>
					<line class="st2" x1="0.2" y1="-0.2" x2="52.3" y2="-0.2"/>
				</g>
				<g>
					<line class="st3" x1="83.1" y1="-34.5" x2="135.2" y2="-34.5"/>
					<line class="st3" x1="83.1" y1="-32.8" x2="135.2" y2="-32.8"/>
					<line class="st3" x1="83.1" y1="-31.1" x2="135.2" y2="-31.1"/>
					<line class="st3" x1="83.1" y1="-29.2" x2="135.2" y2="-29.2"/>
					<line class="st3" x1="83.1" y1="-27.5" x2="135.2" y2="-27.5"/>
					<line class="st3" x1="83.1" y1="-25.8" x2="135.2" y2="-25.8"/>
					<line class="st3" x1="83.1" y1="-24" x2="135.2" y2="-24"/>
					<line class="st3" x1="83.1" y1="-22.2" x2="135.2" y2="-22.2"/>
					<line class="st3" x1="83.1" y1="-20.5" x2="135.2" y2="-20.5"/>
					<line class="st3" x1="83.1" y1="-18.8" x2="135.2" y2="-18.8"/>
					<line class="st3" x1="83.1" y1="-17" x2="135.2" y2="-17"/>
					<line class="st3" x1="83.1" y1="-15.2" x2="135.2" y2="-15.2"/>
					<line class="st3" x1="83.1" y1="-13.4" x2="135.2" y2="-13.4"/>
					<line class="st3" x1="83.1" y1="-11.8" x2="135.2" y2="-11.8"/>
					<line class="st3" x1="83.1" y1="-10" x2="135.2" y2="-10"/>
					<line class="st3" x1="83.1" y1="-8" x2="135.2" y2="-8"/>
					<line class="st3" x1="83.1" y1="-36.5" x2="135.2" y2="-36.5"/>
					<line class="st3" x1="83.1" y1="-38.2" x2="135.2" y2="-38.2"/>
					<line class="st3" x1="83.1" y1="-40.2" x2="135.2" y2="-40.2"/>
					<line class="st3" x1="83.1" y1="-6.5" x2="135.2" y2="-6.5"/>
					<line class="st3" x1="83.1" y1="-4.5" x2="135.2" y2="-4.5"/>
					<line class="st3" x1="83.1" y1="-3" x2="135.2" y2="-3"/>
					<line class="st2" x1="83.1" y1="-42.5" x2="135.2" y2="-42.5"/>
					<line class="st3" x1="83.2" y1="-0.2" x2="135.2" y2="-0.2"/>
				</g>
				<g>
					<line class="st3" x1="41.6" y1="-34.5" x2="93.8" y2="-34.5"/>
					<line class="st3" x1="41.6" y1="-32.8" x2="93.8" y2="-32.8"/>
					<line class="st3" x1="41.6" y1="-31.1" x2="93.8" y2="-31.1"/>
					<line class="st3" x1="41.6" y1="-29.2" x2="93.8" y2="-29.2"/>
					<line class="st3" x1="41.6" y1="-27.5" x2="93.8" y2="-27.5"/>
					<line class="st3" x1="41.6" y1="-25.8" x2="93.8" y2="-25.8"/>
					<line class="st3" x1="41.6" y1="-24" x2="93.8" y2="-24"/>
					<line class="st3" x1="41.6" y1="-22.2" x2="93.8" y2="-22.2"/>
					<line class="st3" x1="41.6" y1="-20.5" x2="93.8" y2="-20.5"/>
					<line class="st3" x1="41.6" y1="-18.8" x2="93.8" y2="-18.8"/>
					<line class="st3" x1="41.6" y1="-17" x2="93.8" y2="-17"/>
					<line class="st3" x1="41.6" y1="-15.2" x2="93.8" y2="-15.2"/>
					<line class="st3" x1="41.6" y1="-13.4" x2="93.8" y2="-13.4"/>
					<line class="st3" x1="41.6" y1="-11.8" x2="93.8" y2="-11.8"/>
					<line class="st3" x1="41.6" y1="-10" x2="93.8" y2="-10"/>
					<line class="st3" x1="41.6" y1="-8" x2="93.8" y2="-8"/>
					<line class="st3" x1="41.6" y1="-36.5" x2="93.8" y2="-36.5"/>
					<line class="st3" x1="41.6" y1="-38.2" x2="93.8" y2="-38.2"/>
					<line class="st3" x1="41.6" y1="-40.2" x2="93.8" y2="-40.2"/>
					<line class="st3" x1="41.6" y1="-6.5" x2="93.8" y2="-6.5"/>
					<line class="st3" x1="41.6" y1="-4.5" x2="93.8" y2="-4.5"/>
					<line class="st3" x1="41.6" y1="-3" x2="93.8" y2="-3"/>
					<line class="st2" x1="41.6" y1="-42.5" x2="93.8" y2="-42.5"/>
					<line class="st3" x1="41.8" y1="-0.2" x2="94" y2="-0.2"/>
				</g>
				<g>
					<line class="st3" x1="0.2" y1="-34.5" x2="52.3" y2="-34.5"/>
					<line class="st3" x1="0.2" y1="-32.8" x2="52.3" y2="-32.8"/>
					<line class="st3" x1="0.2" y1="-31.1" x2="52.3" y2="-31.1"/>
					<line class="st3" x1="0.2" y1="-29.2" x2="52.3" y2="-29.2"/>
					<line class="st3" x1="0.2" y1="-27.5" x2="52.3" y2="-27.5"/>
					<line class="st3" x1="0.2" y1="-25.8" x2="52.3" y2="-25.8"/>
					<line class="st3" x1="0.2" y1="-24" x2="52.3" y2="-24"/>
					<line class="st3" x1="0.2" y1="-22.2" x2="52.3" y2="-22.2"/>
					<line class="st3" x1="0.2" y1="-20.5" x2="52.3" y2="-20.5"/>
					<line class="st3" x1="0.2" y1="-18.8" x2="52.3" y2="-18.8"/>
					<line class="st3" x1="0.2" y1="-17" x2="52.3" y2="-17"/>
					<line class="st3" x1="0.2" y1="-15.2" x2="52.3" y2="-15.2"/>
					<line class="st3" x1="0.2" y1="-13.4" x2="52.3" y2="-13.4"/>
					<line class="st3" x1="0.2" y1="-11.8" x2="52.3" y2="-11.8"/>
					<line class="st3" x1="0.2" y1="-10" x2="52.3" y2="-10"/>
					<line class="st3" x1="0.2" y1="-8" x2="52.3" y2="-8"/>
					<line class="st3" x1="0.2" y1="-36.5" x2="52.3" y2="-36.5"/>
					<line class="st3" x1="0.2" y1="-38.2" x2="52.3" y2="-38.2"/>
					<line class="st3" x1="0.2" y1="-40.2" x2="52.3" y2="-40.2"/>
					<line class="st3" x1="0.2" y1="-6.5" x2="52.3" y2="-6.5"/>
					<line class="st3" x1="0.2" y1="-4.5" x2="52.3" y2="-4.5"/>
					<line class="st3" x1="0.2" y1="-3" x2="52.3" y2="-3"/>
					<line class="st2" x1="0.2" y1="-42.5" x2="52.3" y2="-42.5"/>
					<line class="st3" x1="0.4" y1="-0.2" x2="52.5" y2="-0.2"/>
				</g>
				<g>
					<line class="st3" x1="83.2" y1="-42.5" x2="135.2" y2="-42.5"/>
				</g>
				<g>
					<line class="st3" x1="41.8" y1="-42.5" x2="94" y2="-42.5"/>
				</g>
				<g>
					<line class="st3" x1="0.4" y1="-42.5" x2="52.5" y2="-42.5"/>
				</g>
			</g>
		</g>
	</g>
</pattern>
<pattern  y="300" width="41.3" height="42.2" patternUnits="userSpaceOnUse" id="SVGID_2_" viewBox="69.7 -42.2 41.3 42.2" style="overflow:visible;">
	<g>
		<rect x="69.7" y="-42.2" class="st0" width="41.3" height="42.2"/>
		<g>
			<rect x="69.7" y="-42.2" class="st0" width="41.3" height="42.2"/>
			<g>
				<rect x="69.7" y="-42.2" class="st0" width="41.3" height="42.2"/>
				<g>
					<line class="st4" x1="82.9" y1="-37.1" x2="180.6" y2="-37.1"/>
					<line class="st4" x1="82.9" y1="-39" x2="180.6" y2="-39"/>
					<line class="st4" x1="82.9" y1="-41" x2="180.6" y2="-41"/>
					<line class="st4" x1="82.9" y1="-35" x2="180.6" y2="-35"/>
					<line class="st4" x1="82.9" y1="-32.8" x2="180.6" y2="-32.8"/>
					<line class="st4" x1="82.9" y1="-30.7" x2="180.6" y2="-30.7"/>
					<line class="st4" x1="82.9" y1="-28.6" x2="180.6" y2="-28.6"/>
					<line class="st4" x1="82.9" y1="-26.5" x2="180.6" y2="-26.5"/>
					<line class="st4" x1="82.9" y1="-24.3" x2="180.6" y2="-24.3"/>
					<line class="st4" x1="82.9" y1="-22.2" x2="180.6" y2="-22.2"/>
					<line class="st4" x1="82.9" y1="-20.1" x2="180.6" y2="-20.1"/>
					<line class="st4" x1="82.9" y1="-17.9" x2="180.6" y2="-17.9"/>
					<line class="st4" x1="82.9" y1="-15.8" x2="180.6" y2="-15.8"/>
					<line class="st4" x1="82.9" y1="-13.7" x2="180.6" y2="-13.7"/>
					<line class="st4" x1="82.9" y1="-11.5" x2="180.6" y2="-11.5"/>
					<line class="st4" x1="82.9" y1="-9.4" x2="180.6" y2="-9.4"/>
					<line class="st4" x1="82.9" y1="-7.3" x2="180.6" y2="-7.3"/>
					<line class="st4" x1="82.9" y1="-5.1" x2="180.6" y2="-5.1"/>
					<line class="st4" x1="82.9" y1="-3.3" x2="180.6" y2="-3.3"/>
					<line class="st4" x1="82.9" y1="-1.5" x2="180.6" y2="-1.5"/>
				</g>
				<g>
					<line class="st4" x1="41.5" y1="-37.1" x2="139.2" y2="-37.1"/>
					<line class="st4" x1="41.5" y1="-39" x2="139.2" y2="-39"/>
					<line class="st4" x1="41.5" y1="-41" x2="139.2" y2="-41"/>
					<line class="st4" x1="41.5" y1="-35" x2="139.2" y2="-35"/>
					<line class="st4" x1="41.5" y1="-32.8" x2="139.2" y2="-32.8"/>
					<line class="st4" x1="41.5" y1="-30.7" x2="139.2" y2="-30.7"/>
					<line class="st4" x1="41.5" y1="-28.6" x2="139.2" y2="-28.6"/>
					<line class="st4" x1="41.5" y1="-26.5" x2="139.2" y2="-26.5"/>
					<line class="st4" x1="41.5" y1="-24.3" x2="139.2" y2="-24.3"/>
					<line class="st4" x1="41.5" y1="-22.2" x2="139.2" y2="-22.2"/>
					<line class="st4" x1="41.5" y1="-20.1" x2="139.2" y2="-20.1"/>
					<line class="st4" x1="41.5" y1="-17.9" x2="139.2" y2="-17.9"/>
					<line class="st4" x1="41.5" y1="-15.8" x2="139.2" y2="-15.8"/>
					<line class="st4" x1="41.5" y1="-13.7" x2="139.2" y2="-13.7"/>
					<line class="st4" x1="41.5" y1="-11.5" x2="139.2" y2="-11.5"/>
					<line class="st4" x1="41.5" y1="-9.4" x2="139.2" y2="-9.4"/>
					<line class="st4" x1="41.5" y1="-7.3" x2="139.2" y2="-7.3"/>
					<line class="st4" x1="41.5" y1="-5.1" x2="139.2" y2="-5.1"/>
					<line class="st4" x1="41.5" y1="-3.3" x2="139.2" y2="-3.3"/>
					<line class="st4" x1="41.5" y1="-1.5" x2="139.2" y2="-1.5"/>
				</g>
				<g>
					<line class="st4" x1="0.2" y1="-37.1" x2="97.9" y2="-37.1"/>
					<line class="st4" x1="0.2" y1="-39" x2="97.9" y2="-39"/>
					<line class="st4" x1="0.2" y1="-41" x2="97.9" y2="-41"/>
					<line class="st4" x1="0.2" y1="-35" x2="97.9" y2="-35"/>
					<line class="st4" x1="0.2" y1="-32.8" x2="97.9" y2="-32.8"/>
					<line class="st4" x1="0.2" y1="-30.7" x2="97.9" y2="-30.7"/>
					<line class="st4" x1="0.2" y1="-28.6" x2="97.9" y2="-28.6"/>
					<line class="st4" x1="0.2" y1="-26.5" x2="97.9" y2="-26.5"/>
					<line class="st4" x1="0.2" y1="-24.3" x2="97.9" y2="-24.3"/>
					<line class="st4" x1="0.2" y1="-22.2" x2="97.9" y2="-22.2"/>
					<line class="st4" x1="0.2" y1="-20.1" x2="97.9" y2="-20.1"/>
					<line class="st4" x1="0.2" y1="-17.9" x2="97.9" y2="-17.9"/>
					<line class="st4" x1="0.2" y1="-15.8" x2="97.9" y2="-15.8"/>
					<line class="st4" x1="0.2" y1="-13.7" x2="97.9" y2="-13.7"/>
					<line class="st4" x1="0.2" y1="-11.5" x2="97.9" y2="-11.5"/>
					<line class="st4" x1="0.2" y1="-9.4" x2="97.9" y2="-9.4"/>
					<line class="st4" x1="0.2" y1="-7.3" x2="97.9" y2="-7.3"/>
					<line class="st4" x1="0.2" y1="-5.1" x2="97.9" y2="-5.1"/>
					<line class="st4" x1="0.2" y1="-3.3" x2="97.9" y2="-3.3"/>
					<line class="st4" x1="0.2" y1="-1.5" x2="97.9" y2="-1.5"/>
				</g>
			</g>
		</g>
	</g>
</pattern>
<g id="Capa_1_1_">
	<pattern  id="SVGID_3_" xlink:href="#Motivo_nuevo_3" patternTransform="matrix(1 0 0 -1 -31.9 -16062)">
	</pattern>
	<rect x="-192" y="-93.2" class="st5" width="1448" height="463"/>
	<g>
		<g>
			<g transform="translate(0,0) scale(1.259722500391938)">
				<g>
					<path class="st6" d="M336.3-18.7l-0.1,5.1l-2.2-1.1l0.4,5.6l-1.7-3.7l-0.3-3.5l-1.2-3.4l-2.6-4.2l-5.6-0.3l0.6,2.9l-1.9,3.9
						l-2.6-1.4l-0.9,1.2l-1.7-0.8l-2.3-0.6l-1-5.9l-2.2-5.4l1-4.3l-3.8-1.9l1.3-2.6l3.9-2.6l-4.5-3.9l2.2-4.9l4.9,3.1l2.9,0.3
						l0.6,5.1l5.8,0.9l5.6-0.2l3.6,1.2l-2.9,6l-2.8,0.5l-1.9,4l3.3,3.7l1-4.5h1.7L336.3-18.7z"/>
					<path class="st6" d="M-53.8,158l-0.4-7.9l-1.6-2.9l3.8,0.5l1.9-3.7l3.3,0.5l0.3,2.6l1.3,1.5v2.2l-1.4,1.4l-2.5,3.4l-2.2,2.3
						L-53.8,158z"/>
					<path class="st6" d="M26.4,46.3l-2.2-2.2l-2.5-3.9L19,38.1l-1.6-2.3L12,33.2L7.9,33l-1.4-1.4l-3.6,1.5l-3.9-3l-1.9,5.1
						l-7.2-1.4l-0.7-2.8l2.6-9.9l0.6-4.5l1.9-2.2l4.5-1.1L2,9.4l3.6,7.9l1.7,6.2l3.3,3.2L19,33l3.5,3.9l3.3,3.9l1.9,2.3l3,2
						l-1.9,1.7L26.4,46.3z"/>
					<path class="st6" d="M875.4,234.6l-0.7,3.2l-0.6,0.3l-3.9,1.7l-3.9,1.4l-0.7-2.5l3-1.4l1.9-0.3l3.6-2.2L875.4,234.6z
						 M862.6,244.8l-2.8-0.8l-2.3,2.3l0.6,3.1l3.3,0.9l3.8-0.9l1-3.5l-2.2-2L862.6,244.8z"/>
					<path class="st6" d="M-19.4-86.9l0.1-1.4c-0.9,0-1.9,0.2-2.8,0.2l-1.6,2.2l4.1,13l3.2-12l-0.1-2.9L-19.4-86.9z"/>
					<path class="st6" d="M-3-89.2c-4.5,0.3-8.8,0.6-13.3,0.8l-0.1,0.5l0.1,2.9l-3,12l0.1,1.2l6.8,1.2l2.6-2.3l1.4-2.8l4.6-1.1
						l1-2.5l2-1.2l-6-7.5L-3-89.2z"/>
					<path class="st6" d="M61-76.4l1.3,3.4l-0.6,1.7l2,5.6l-4.3,0.2L57.8-69l-5.5-0.8l4.5-7.3L61-76.4z"/>
					<path class="st6" d="M269.2,79.5l-0.9,6.8l-2.6,1.9l-5.4,1.5l-2.9-5.2l-1.2-9.4l2.8-10.6l4.2,3.7l2.9,4.6L269.2,79.5z"/>
					<path class="st6" d="M786.6,269.5l5.1,4.3l3.2,3.2l-2.3,1.7l-3.3-1.9l-4.3-3.2l-3.9-3.7L777,265l-0.9-2.3l2.6,0.2l3.5,2.3
						l2.8,2.3L786.6,269.5z"/>
					<path class="st6" d="M-139.3-11.8l-2.3-1.9l-1.4-11l-4.3,2.6l-3.5-3.9l-9.7-3.1l-4.6,2.9c0.3,17.4,1,34.9,1,52.2
						c0,4.9,0,9.7,0,14.7l0.7,0.2l4.8,2l4.8-3.7l1.4,0.3l4.2,7.3l1.2-0.2l0.1-2.2l1.7-0.5l0.6-3.1l-3.9-0.2v-4.3l-2.6-2.5l2.6-9
						l8-6.5l0.3-9l2.3-14l1.3-2.9l-2.6-2.3v-1.9H-139.3z"/>
					<path class="st6" d="M78.4-38L78-43.2l1.6-3.9l1.7-0.8l1.9,2.3l0.1,4.2L82-37.2l-1.7,0.5L78.4-38z"/>
					<path class="st6" d="M535.2,186.9l0.7-1.5l5.4-1.5l4.3-0.2l1.9-0.8l2.3,0.8l-2.3,1.9l-6.4,2.9l-5.2,1.9l-0.1-2L535.2,186.9z"/>
					<path class="st6" d="M515.5-35.5l-3.8,11.4l-2.6,5.9l-3.2-6l-0.7-5.2l3.6-6.9l4.9-5.4l2.8,2.2L515.5-35.5z"/>
					<path class="st6" d="M83.2-34.4l1.2-0.3l0.3,2l4.8-1.1l5.1,0.2l3.8,0.2l4.2-4.8l4.6-4.6l3.9-4.5l1.2,2.5l0.9,5.7H110l-0.4,4.6
						l1.2,0.9l-2.8,1.4v2.9l-1.7,2.9l-0.1,2.8l-1.3,1.5L86-25.6l-2.3-7.3L83.2-34.4z"/>
					<path class="st6" d="M-38.2,135.3l-6.8-0.2l-2.2,0.8l-3.6,2l-1.4-0.6v-4.9l1.4-2.5l0.3-5.2l1.3-3.1l2.3-3.4l2.3-1.7l2-2.3
						l-2.5-0.9l0.4-7.6l2.6-1.9l3.9,1.4l4.9-1.5h4.3l3.8-2.9l2.9,4.5l0.7,3.2l2.8,7.6l-2.2,4.8l-3,4.3l-1.7,2.6v6.9L-38.2,135.3z"/>
					<path class="st6" d="M128-12.2l-2.3,4.8L123-7.7L121.7-6l-1,3.5l0.7,4.6l-0.6,0.8h-2.9L114,5.5l-0.6,3.4l-1.4,1.4h-3.8
						l-2.5,1.7v2.8l-3,1.9L99.4,16l-4.1,2.3l-2.9,0.5l-2-4.8L85.6,2.8l18.5-6.9l4.1-14l-2.8-4.9l0.1-2.8l1.7-2.9v-2.9L110-33
						l-1.2-0.9l0.4-4.6h3.2l2.8,4.9l3.5,2.6l4.5,0.9l3.6,1.2l2.8,4l1.6,2.3l2.2,0.9v1.5l-2.2,4.2l-1,2L128-12.2z M112.8-46.3
						l-0.9,1.4l-1.2-2.5l1.7-2.5l0.7,0.6L112.8-46.3z"/>
					<g>
						<g class="st7">
							<path class="st6" d="M388,88.1l0.4,3.4l4.1-0.8l2-2.6l1.4,0.6l3.6,4l2.6,4.3l0.3,4.5l-0.7,2.9l0.6,2.3l0.4,3.9l2.2,1.9
								l2.5,5.7l-0.1,2.2l-4.3,0.5l-5.8-4.8l-7.2-5.2l-0.7-3.4l-3.6-4.3l-0.9-5.4l-2.2-3.5l0.7-4.8l-1.3-2.8l1-1.2L388,88.1z
								 M496.1,99.5l-4.5,2.2l-5.4-1.1h-7.1L477,108l-2.3,2.3l-3.2,9.1l-5.1,1.4l-5.8-1.9l-2.9,0.6l-3.6,3.2l-3.9-0.5l-3.9,1.4
								l-4.2-3.7l-1-4.3l4.5,2.2l4.8-1.2l1.3-5.6l2.6-1.2l7.4-1.4l4.5-5.1l3-4.2l2.8,3.4l1.3-2.2l2.9,0.2l0.3-4.2l0.3-3.2l4.8-4.6
								l3-5.1h2.5l3.2,3.4l0.3,2.8l4.1,1.9l5.1,2l-0.4,2.6l-4.2,0.3L496.1,99.5z"/>
						</g>
					</g>
					<path class="st6" d="M431-15.3l-8.3,6l-5.1,6.6l-1.3,4.8l4.8,7.3l5.8,9l5.6,4.2l3.8,5.4l2.8,12.5l-0.9,11.7l-5.1,4.3l-7.1,4.3
						l-5.1,5.6l-7.7,6.2l-2.2-4.2l1.7-4.5l-4.6-3.7l5.4-2.6l6.5-0.5l-2.8-4l10.3-5.1l0.7-8l-1.4-4.5l1.2-6.8l-1.6-4.8l-4.6-4.8
						l-3.9-6l-5.1-8.2l-7.4-4.2l1.7-2.5l3.9-1.9l-2.3-6h-7.5l-2.8-6.3l-3.6-5.6l3.3-1.7h4.9l5.9-0.8l5.2-3.7l3,2.6l5.6,1.2l-1,4
						l2.9,2.9L431-15.3z"/>
					<path class="st6" d="M18,134.3l3.6,5.4l-4.3,2.6l-1.6,2.8l-2.3,0.5l-0.9,4.6l-2,2.6l-1.2,4.3l-2.5,2.2l-8.8-6.5l-0.4-3.9
						l-22.3-13.3l-1-0.8v-6.9l1.7-2.6l3-4.3l2.2-4.8l-2.8-7.6l-0.7-3.2l-2.9-4.5l3.8-3.9l4.2-4.3l3.2,1.1v3.7l2.2,2.2h4.3l7.8,5.6
						h1.9l1.4-0.2l1.3,0.8l4.1,0.5l1.9-2.8l5.6-2.8L19,103h4.2l-5.4,7.4L18,134.3z"/>
					<path class="st6" d="M-156.9,255.3l1.3,4.3l3.2,8.3l3.2,5.9l2.5,2.9l0.7,3.9l0.1,8.5l2,11.1l0.6,1.7h0.1
						c10.4,0.3,20.7,0.9,31.1,1.5v-7.7V275l6.1-0.3l0.1-24.7l4.6-0.2l9.6-2.5l2.3,2.8l3.9-2.6h1.9l3.5-1.5v-0.6l-2.5-1.5l-4.1-0.5
						l-5.1,1.5l-11.3,2.8l-14.9-0.9l-4.2-3.2l-24.9,0.3l-0.9,0.5l-3.6-3.1l-4.1-0.2l-3.6,1.2l-2.9,1.2l0.4,5.2L-156.9,255.3z"/>
					<path class="st6" d="M-110.3,296.6l3.6,6.8v0.2c2.3,0.2,4.6,0.3,7,0.5c1.4-0.2,3-0.2,4.5-0.2l1.3-3.1l3-1.7l2.6,0.9l2.9,2
						l5.1,0.3l3.9-1.7l0.6-2.3l1-3.4l3.3-0.6l1.9-2.6l2-4.8l5.5-5.2l8.7-5.2l-3.9-3.2l-4.8-1.1l-1.9-4.5v-2.5l-2.6-0.8l-7-7.6
						l-1.9-4l-1.3-1.2L-79,246l-1.2-0.5l-3.5,1.5h-1.9l-3.9,2.6l-2.3-2.8l-9.6,2.5l-4.6,0.2l-0.1,24.7l-6.1,0.3v20.7L-110.3,296.6z"
						/>
					<path class="st6" d="M228.4-94.5c-12,0.2-24.2,0.2-36.2,0.3l0.3,3.1l-2.5,2.2l-2.3-0.8l-4.8,0.9l-0.7,2.2h-4.6l-3.5,4.3
						l-0.3,6.5l-8,3.1l-4.3-0.6l-1.3,1.7l-3.6-0.9l-6.2,1.1l-10.3-3.9l3,4l2.5,4.5l5.9,3.2l0.1,6.5l2.9,1.2l0.6,3.4l-8.8,3.7
						l-2.3,8.5l8.7-1.1l10-0.2L174-43l4.8,5.6l1.9,5.1l4.5,1.9l4.1-4.8h13.6l-1.2-6.2l-3.5-3.7l-0.7-5.6l-3.8-3.2l6.8-7.7l7.1,0.6
						l6.4-7.7l3.9-7.6l5.9-7.6l-0.1-5.4l5.2-4.5L228.4-94.5z"/>
					<path class="st6" d="M70.6,210.7l1.6,2.8l1.6,4.5l1,8l1.6,3.1l-0.6,3.2l-1.2,2l-2-4l-1.2,2l1.2,5.1l-0.6,2.9l-1.7,1.5l-0.4,5.9
						l-2.5,8l-3,9.6l-3.8,13.3l-2.3,9.9l-2.8,8.3l-5.1,1.7l-5.4,3.1l-3.5-1.9l-4.9-2.6l-1.7-3.9l-0.4-6.3l-2.2-5.7l-0.6-5.1l1.2-5.1
						l2.9-1.2v-2.3l2.9-5.2l0.6-4.5l-1.4-3.2l-1.2-4.3l-0.4-6.3l2.2-3.9l0.9-4.3l3-0.3l3.5-1.4l2.3-1.2l2.8-0.2l3.5-3.9l5.1-4.2
						l1.9-3.4l-0.9-2.9L63,219l3.3-4.6l0.1-4l2-2.9L70.6,210.7z"/>
					<path class="st6" d="M-15.8-26.3l-0.1-4.6l1.2-1.2l-5.5-7.9l-2-4l-2.3-4l-4.6-11.4l-3.8-7.4l-2.6-7.9l0.7-0.8l4.3,10.6l2.8,3.2
						l2,2.3l1.4-1.2l1.7-3.9l1.3-5.6l1.7-3.1l-4.1-13l-2.9,2l-4.8-0.5l-4.9-1.9l-1.4,2.5l-1.4-3.2c-4.1,0.3-8,0.5-12,0.8l-0.6,0.5
						l-4.8,2.6l-2.9-1.2l-2.9-1.1c-6.5,0.3-13,0.6-19.5,0.9l1,2.9l-1.6,4.6l1.7,6.2v52.5h73.1l-1-1.5L-15.8-26.3z"/>
					<path class="st6" d="M61.1-84.1h-2l1-5.6L58.8-92c-14.5,0.5-28.8,0.9-43.3,1.7l7.8,4.6l17.4,15.1L52.1-70l4.5-7.3l4.2,0.6
						l3.6,0.3l-3.3-3.9C61.1-80.3,61.1-84.1,61.1-84.1z"/>
					<path class="st6" d="M104.3-21.9l-18.5-3.5l-2.3-7.3l-0.3-1.7L82-37.2l-1.7,0.5l-1.9-1.4l-0.9-1.7l-0.9-2.3l-1.7-2l-0.7-2.5
						l0.6-2.5l-0.4-3.1l-4.2-3.1l-1-2.6l-3-1.7l-2.5-6.3l-4.3,0.2l-1.6-3.5L52.3-70l-11.4-0.6L23.3-85.8l-7.8-4.6
						c-2.6,0.2-5.1,0.2-7.7,0.3c-3.6,0.2-7.4,0.5-11,0.6l-3.6,1.1l6.1,7.6l-2,1.2l-1,2.5L-8.3-76l-1.4,2.8l-2.6,2.3l-6.8-0.8
						l-0.7,2.9l-0.3,2.6l-1,4h3l3.2,5.1l3.8,5.9l2.5,5.4l1.7,1.5l1.7,3.7l-0.3,1.7l2,4.2l3.3,1.5l2.9,2.8l3.5,7.9l-0.3,4.2l0.7,4.9
						l4.1,6.6l2.8,1.1L17.6-1l1.7,5.6l3.3,5.7l3.2,2.5l0.4,2.8l1.9,2l0.9,2.9l2.8-2.2l-0.6-2.9l1.6-3.4l2.5,1.9l1.7-0.6l7.1-0.2
						l1.2,0.6l5.9,0.6l2.3-0.3l1.6,2.3l2.9-1.1L62.3,8l5.8-3.1l17.8-2.6l18.5-6.9l4.1-14l-2.8-4.9L104.3-21.9z"/>
					<path class="st6" d="M764,197.4l1.7,2.3h-4.3l-2.3-4l3.6,1.5L764,197.4z M756.2,193.4l-2.5,0.2l-3.8-0.6l-1.3-1.1l0.4-2.6
						l4.1,1.1l2,1.4L756.2,193.4z M761.3,191.7l-0.9,1.2l-4.6-5.7l-1.3-4h2l2.2,5.2L761.3,191.7z M750.1,183.3l0.3,1.4l-4.8-2.8
						l-3.3-2.3l-2.3-2.2l0.9-0.6l2.9,1.5l5.1,3.1L750.1,183.3z M735.8,176.7l-1.2,0.3l-2.8-1.5l-2.5-2.6l0.3-1.1l3.6,2.8
						L735.8,176.7z"/>
					<path class="st6" d="M-25.3,66.7l-0.9-0.2l0.1-3.2l-0.7-2.3l-3.2-2.6l-0.9-4.8l0.7-4.9l-2.9-0.5l-0.4,1.5l-3.8,0.3l1.4,2l0.6,4
						l-3.3,3.7l-3,4.8l-3.2,0.6l-5.2-3.9l-2.3,1.4l-0.6,2l-3.2,1.2l-0.1,1.4h-6.1l-0.9-1.4l-4.5-0.2l-2.2,1.1l-1.7-0.6l-3.2-3.9
						l-1-1.9l-4.5,0.9l-1.7,3.1l-1.6,5.9l-2.2,1.2l-1.9,0.8l-0.4-0.3l-2.2-1.9l-0.3-2.2l1-2.8v-2.6l-3.6-4.2l-0.7-2.8l0.1-1.5
						l-2.3-2V48l-1.3-2.6l-2.2,0.5l0.6-2.5l1.6-2.8l-0.7-2.8l2-2l-1.3-1.5l1.6-4.2l2.8-4.9l5.4,0.5l-0.3-27.2l0.1-2.9h7.1v-13.9
						h24.8H-32h24.5l2,6.9l-1.3,1.2l0.9,7.1l2.3,8.2l2.3,1.7L2,9.3l-3.2,3.9l-4.5,1.1l-1.9,2.2L-8.2,21l-2.8,9.9l0.7,2.6l-1,5.7
						l-2.5,6.6l-3.8,3.2l-2.6,5.1l-0.7,2.8l-2.9,1.9l-1.9,6.9L-25.3,66.7z"/>
					<path class="st6" d="M-32.7,189.2l2.9,2.9l1.6,5.6l-1,1.9l-1.3,5.4l1.2,5.6l-1.9,2.3l-1.9,6.2l3.2,1.7l-18.7,5.6l0.6,4.8
						l-4.6,0.9l-3.5,2.8l-0.7,2.3l-2.2,0.5l-5.4,5.6l-3.5,4.5l-2,0.2l-2-0.8l-7-0.8l-1.2-0.5v-0.6l-2.5-1.5l-4.1-0.5l-5.1,1.5
						l-4.1-4.3l-4.2-5.6l0.3-21.5l12.9,0.2l-0.6-2.3l0.9-2.5l-1-3.1l0.7-3.2l-0.7-2l2.2,0.2l0.3,2l2.9-0.2l3.9,0.6l2,3.1l4.9,0.9
						l3.8-2.2l1.4,3.5l4.8,0.9l2.3,2.8l2.5,3.7h4.8l-0.6-7.3l-1.7,1.2l-4.3-2.6l-1.6-1.2l0.7-6.6l1.2-7.9l-1.4-2.9l1.7-4.2l1.6-0.8
						l8.3-1.1l2.5,0.6l2.6,1.7l2.5,1.1l3.9,1.1L-32.7,189.2z"/>
					<path class="st6" d="M-42.4,277.6l-3.3-0.8l-2,0.8l-3-1.2h-2.5l-3.9-3.2l-4.8-1.1l-1.9-4.5v-2.5l-2.6-0.8l-7-7.6l-1.9-4
						l-1.3-1.2l-2.3-5.6l7,0.8l2,0.8l2-0.2l3.5-4.5l5.4-5.6l2.2-0.5l0.7-2.3l3.5-2.8l4.6-0.9l0.4,2.5l5.1-0.2l2.9,1.4l1.3,1.7
						l2.9,0.5l3.2,2.6v8.6l-1.2,4.8l-0.3,5.1l1,2l-0.7,4l-0.9,0.6l-1.6,5.1L-42.4,277.6z"/>
					<path class="st6" d="M-136.8,109.1l-2.8-2.2l-2.3-3.4l-0.6-2.3l-2.9-3.4l0.4-2l-0.6-2.8l0.4-5.1l1.4-1.2l3-6.6l1.2-1.7
						l-1.9-4.5l-1-2.8l-2.8-1.1l-3.6-3.9l1.3-3.1l2.8,0.6l1.7-0.5h3.5l-3.2-6l0.3-4.5l-0.4-4.5l-2.5-4.2l-1.7,0.3l-0.1,2.2l2.5,2.6
						l-0.7,1.2l-0.3,2.2l-5.4,5.2l-1.6,4.2l-0.9,3.4l-1.3,1.5l-1.3,4.6l-3.3,2.8l-1,3.4l-1.4,2.6l-0.6,2.8l-2.3,1.2
						c-0.1,9.9-0.1,19.8-0.3,29.6l2.8-0.5l3.8,0.9l3.6-0.8l0.7,0.3l7.8,0.3l4.9,1.7l4.9,1.5l0.4-3.5l-0.6-1.9L-136.8,109.1z"/>
					<path class="st6" d="M-149.3,128.4l2.6-7.6l-1.4-1.2l-4.6,0.5l-1.7-3.4l0.4-2.8l-0.7-0.3l-3.6,0.8l-3.8-0.9l-2.8,0.5
						c-0.1,13.3-0.3,26.7-0.3,40l3.6-2.8l-2.3-4.3l2.2-1.7l4.2-0.8l0.4-2.9l3.3,3.1l5.5,0.3l1.9-3.1l0.7-4.3l-0.7-5.1L-149.3,128.4z
						"/>
					<path class="st6" d="M-124.8,105.5l-4.2-1.1l-3.6,3.4l-3.2,6l-0.4,3.5l-4.9-1.5l-4.9-1.7l-7.8-0.3l-0.4,2.8l1.7,3.4l4.6-0.5
						l1.6,1.2l-2.6,7.6l2.9,3.9l0.7,5.1l-0.7,4.3l-1.9,3.1l-5.5-0.3l-3.3-3.1l-0.4,2.9l-4.2,0.8l-2.2,1.7l2.3,4.3l-3.6,2.8
						c0,0.8,0,1.4,0,2.2l4.1,5.6l2.5-2.8l1.9-1.1l2.3,2.3l1.6,0.6l2.2-2.5h3.3l0.4,1.9l2.3,1.2l3.6-4.2l3.6-3.2l1.6-2.2l-0.1-5.4
						l2.6-6.3l2.8-3.4l4.1-3.1l0.7-2l0.1-2.3l1-2.3l-0.3-3.7l0.7-5.7l1.2-4l1.9-3.5l0.4-4L-124.8,105.5z"/>
					<path class="st6" d="M-133.9,167.1l1.4,4.9l1.7,4l1.4,2.2l2.3,3.4l4.1-0.5l2-0.9l3.3,0.9l0.9-1.7l1.6-3.9l3.8-0.3l0.3-1.1h3.2
						l-0.6,2.3h7.5l0.1,4.2l1.3,2.5l-0.9,4l0.4,4l2,2.5l-0.3,7.9l1.6-0.6l2.6,0.2l3.8-0.9l2.8,0.5l0.6,2l-0.7,3.2l1,3.1l-0.9,2.5
						l0.6,2.3l-12.9-0.2L-100,235l4.2,5.6l4.1,4.3l-11.3,2.8l-14.9-0.9l-4.2-3.2l-24.9,0.3l-0.9,0.5l-3.6-3.1l-4.1-0.2l-3.6,1.2
						l-2.9,1.2l-0.6-4.3l0.9-6l2.2-6.2l0.3-2.9l2-6l1.4-2.8l3.5-4.3l2-2.9l0.6-4.9l-0.3-3.7l-1.9-2.3l-1.6-4l-1.4-4l0.3-1.4l1.9-2.6
						l-1.9-6.3l-1.3-4.5l-3-4.2l0.6-1.2l2.6-0.9l1.7,0.2l2.2-0.8L-133.9,167.1z M-157.9,165.9l-1.6,0.6l-1.6-4.9l2.5-2.8l1.9-1.1
						l2.3,2.3l-2.2,1.4l-1,1.7L-157.9,165.9z"/>
					<g>
						<g class="st7">
							<path class="st6" d="M509,195.8l-2.6,0.2l-8.1-4.6l5.8-1.2l3.2,2l2.2,2L509,195.8z M531.9,195.2l-5.2,1.4l-0.7-0.8l0.6-2.3
								l2.6-4l6.1-2.6l0.6,1.2l0.1,2L531.9,195.2z M491.6,181.6l2.2,1.7l3.8-0.5l1.6,2.8l-7.1,1.4l-4.2,0.9h-3.3l2.2-3.9h3.3
								L491.6,181.6z M522.5,181.6l-0.9,3.7l-9.3,1.9l-8.3-0.8V184l4.9-1.4l3.9,2l4.1-0.5L522.5,181.6z M434.4,173l11.7,0.6l1.3-2.8
								l11.4,3.1l2.2,4.3l9.3,1.2l7.5,3.9l-7.1,2.5l-6.8-2.6l-5.6,0.2l-6.4-0.5l-5.8-1.2l-7.1-2.5l-4.5-0.6l-2.6,0.8l-11.3-2.8
								l-1-2.8l-5.6-0.5l4.2-6.3l7.5,0.5l4.9,2.6l2.6,0.5L434.4,173z M595.3,169.3l-3.2,4.5l-0.6-4.9l1.2-2.3l1.3-2.2l1.4,1.9
								L595.3,169.3z M549.3,151.2l-2.3,2.2l-4.2-1.2l-1.2-2.8l6.2-0.3L549.3,151.2z M569.1,148.9l2.2,4.9l-5.2-2.6l-5.2-0.6
								l-3.5,0.5l-4.2-0.2l1.4-3.5l7.7-0.3L569.1,148.9z M591.7,136.3l1.7,10.5l6.4,3.9l5.2-6.9l7.1-4h5.5l5.2,2.3l4.6,2.3l6.7,1.2
								l0.1,21.3l0.1,21.5l-5.5-5.4l-6.2-1.4l-1.4,1.9l-7.8,0.2l2.6-5.4l3.9-1.9l-1.6-7.1l-2.9-5.6l-11.9-5.6l-5.1-0.6l-9.3-6
								l-1.9,3.2l-2.3,0.6l-1.4-2.5V150l-4.6-3.2l6.7-2.3l4.3,0.2l-0.6-1.7h-9l-2.5-3.9l-5.5-1.2l-2.6-3.2l8.3-1.5l3.2-2.2l9.8,2.6
								L591.7,136.3z M536.8,119.4l-4.9,6.5l-4.6,1.2l-5.9-1.2l-10.3,0.3l-5.4,0.9l-0.9,4.9l5.5,5.9l3.3-2.9l11.4-2.2l-0.4,2.9
								l-2.8-0.9l-2.6,3.9l-5.4,2.5l5.8,8.3l-1.2,2.3l5.5,7.6v4.3l-3.3,1.9l-2.5-2.3l3-5.4l-6.1,2.5l-1.6-1.9l0.9-2.5l-4.5-3.9
								l0.4-6.3l-4.1,2l0.6,7.6l0.3,9.4l-3.9,0.9l-2.6-1.9l1.7-6l-1-6.3h-2.6l-1.9-4.5l2.6-4.3l0.9-5.2l3-9.9l1.3-2.6l5.2-4.8
								l4.8,1.9l7.8,0.9l7.1-0.3l6.1-4.8L536.8,119.4z M558.1,121.3l-0.3,5.7l-3.2-0.6l-0.9,4l2.6,3.4l-1.7,0.8l-2.5-4.2l-1.9-8.3
								l1.3-5.2l2-2.3l0.4,3.5l3.6,0.6L558.1,121.3z M491.5,116.8l7,6l-7.2,0.8l-2,4.5l0.3,5.9l-5.9,4.5l-0.1,6.5l-2.3,10l-0.9-2.3
								l-7,2.9l-2.5-4l-4.3-0.3l-3-2.2l-7.7,2.3l-2.3-3.1l-4.1,0.3l-5.1-0.8l-1-8.8l-3-1.9l-2.9-5.6l-0.9-5.7l0.7-6l3.6-4.3l1,4.3
								l4.2,3.7l3.9-1.4l3.9,0.5l3.6-3.2l2.9-0.6l5.8,1.9l5.1-1.4l3.2-9.1l2.3-2.3l2.2-7.4h7.1l5.4,1.1l-3.5,5.9l4.5,6.2
								L491.5,116.8z M417.2,167l-6.8,0.2l-5.2-5.4l-8-5.4l-2.6-4l-4.6-5.2l-3-4.9l-4.6-9.1l-5.4-5.4l-1.7-5.6l-2.3-5.1l-5.5-4.2
								l-3.2-5.6l-4.6-3.7l-6.4-7.3l-0.6-3.4l3.9,0.3l9.6,1.2l5.5,6.3l4.8,4.5l3.3,2.8l5.8,6.9l6.2,0.2l5.2,4.5l3.6,5.4l4.6,2.9
								l-2.5,5.2l3.5,2.3l2.2,0.2l1,4.5l2.2,3.7l4.5,0.6l3,4.2l-1.6,8.2L417.2,167z"/>
						</g>
					</g>
					<path class="st6" d="M-25.7,134.9l1,0.8L-2.4,149l0.4,3.9l8.8,6.5l-2.9,8l0.4,3.7l3.9,2.5l0.1,1.7l-1.6,4l0.3,2l-0.4,3.1
						l2.2,4.2l2.6,6.5l2.3,1.4l-4.9,3.9L2,203l-3.8-0.2l-2.2,2l-4.3,0.2l-1.6,0.8l-7.4-1.9l-4.6,0.5l-1.7-9.1l-2-3.1l-1.3-1.9
						l-6.1-1.2l-3.5-2l-3.9-1.1l-2.5-1.1l-2.6-1.7l-3.3-8.3l-3.6-3.7l-1.3-3.9l0.6-3.4l-1.2-6l2.6-0.3l2.2-2.3l2.5-3.4l1.4-1.4v-2.2
						l-1.3-1.5l-0.3-2.6l1.7-0.8l0.3-3.9l-2.5-3.7l2.2-0.8l6.8,0.2L-25.7,134.9z"/>
					<path class="st6" d="M92.6,18.5l-4.5,1.9l-1.2,3.1l-0.1,2.3l-6.1,2.9l-9.8,3.1l-5.5,4.8l-2.8,0.3l-1.9-0.5l-3.6,2.8l-3.9,1.2
						L48,40.7L46.4,41l-1.3,1.7l-1.6,0.5l-1,1.7l-3-0.2l-2,0.9l-4.2-0.3l-1.6-3.9l0.1-3.7l-1-2l-1.2-4.9L27.9,28l1.3-0.3l-0.6-3.1
						l0.7-1.2L29,20.5l2.8-2.2l-0.6-2.9l1.6-3.4l2.5,1.9l1.7-0.6l7.1-0.2l1.2,0.6l5.9,0.6l2.3-0.3l1.6,2.3l2.9-1.1L62.3,8l5.8-3.1
						l17.8-2.6l4.8,11.3L92.6,18.5z"/>
					<path class="st6" d="M-44.6,105.9l-0.4,7.6l2.5,0.9l-2,2.3l-2.3,1.7l-2.3,3.4l-1.3,3.1l-0.3,5.2l-1.4,2.5v4.9l-1.7,1.9
						l-0.3,3.9l-0.9,0.5l-0.6,3.5l1.6,2.9l0.4,7.9l1.2,6l-0.6,3.4l1.3,3.9l3.6,3.7l3.3,8.3l-2.5-0.6l-8.3,1.1l-1.6,0.8l-1.7,4.2
						l1.4,2.9l-1.2,7.9l-0.7,6.6l1.6,1.2l4.3,2.6l1.7-1.2l0.6,7.3H-56l-2.5-3.7l-2.3-2.8l-4.8-0.9l-1.4-3.5l-3.8,2.2l-4.9-0.9
						l-2-3.1l-3.9-0.6l-2.9,0.2l-0.3-2l-2.2-0.2l-2.8-0.5l-3.8,0.9l-2.6-0.2l-1.6,0.6l0.3-7.9l-2-2.5l-0.4-4l0.9-4l-1.3-2.5
						l-0.1-4.2h-7.5l0.6-2.3h-3.2l-0.3,1.1l-3.8,0.3l-1.6,3.9l-0.9,1.7l-3.3-0.9l-2,0.9l-4.1,0.5l-2.3-3.4l-1.4-2.2l-1.7-4l-1.4-4.9
						l-18.2-0.2l-2.2,0.8l-1.7-0.2l-2.6,0.9l-0.9-2l1.6-0.6l0.1-2.9l1-1.7l2.2-1.4l1.6,0.6l2.2-2.5h3.3l0.4,1.9l2.3,1.2l3.6-4.2
						l3.6-3.2l1.6-2.2l-0.1-5.4l2.6-6.3l2.8-3.4l4.1-3.1l0.7-2l0.1-2.3l1-2.3l-0.3-3.7l0.7-5.7l1.2-4l1.9-3.5l0.4-4l0.6-4.6l2.5-3.4
						l3.3-2.2l5.1,2.2l3.9,2.5l4.5,0.6l4.6,1.2l1.9-4l0.9-0.5l2.8,0.6l6.8-3.2l2.5,1.4l2-0.2l0.9-1.5l2.3-0.6l4.6,0.6l3.9,0.2l2-0.6
						l3.8,5.4l2.8,0.8l1.6-1.1l2.9,0.5l3.5-1.4l1.4,2.8L-44.6,105.9z"/>
					<path class="st6" d="M-80.8-81.7l-0.9-2.9c-9.8,0.5-19.7,0.6-29.5,0.6l-2.8,3.2l-3,2l-6.5-3.7l-4.6-1.7
						c-11.3-0.3-22.6-0.9-34-2.2c-0.9-0.2-1.6-0.3-2.2-0.6c1.2,12.7-0.7,26.1-1,38.1c-0.1,4.8-0.1,9.4-0.1,14.2l2,1.4l2.8,4.5
						l9.7,3.1l3.5,3.9l4.3-2.6l6.2-3.9l24.6,13.6l24.6,13.3l0.1-2.9h7.1v-66.5l-1.9-6.2L-80.8-81.7z"/>
					<path class="st6" d="M151.9-57.1l-0.1-6.5l-5.9-3.2l-2.5-4.5l-3-4l5.6-6.8l-0.4-4.9l-4.6-1.2l-0.4-4.9l-0.1-0.3
						C113.3-93.2,86.2-92.8,59-92l1.3,2.3l-1,5.6h2v4l3.5,4l2.3-2.9l3.9,2.5l3.3-1.2l4.5,10l4.1,7.1l5.9,2.2l6.2,5.7l7.5,2.5
						l6.2-3.5l4.8-1.2l2.9,1.2l2.6,9l7,0.9l6.7,1.7l11.6,2.2l2.3-8.5l8.8-3.7l-0.6-3.4L151.9-57.1z"/>
					<path class="st6" d="M183.8-94c-14.5,0.2-29,0.3-43.4,0.5l0.1,0.3l0.4,4.9l4.6,1.2l0.4,4.9l-5.6,6.8l10.3,3.9l6.2-1.1l3.6,0.9
						l1.3-1.7l4.3,0.6l8-3.1l0.3-6.5l3.5-4.3h4.6l0.7-2.2l4.8-0.9l2.3,0.8l2.5-2.2l-0.3-3.1C189.4-94.2,186.5-94.2,183.8-94z"/>
					<path class="st6" d="M799.2,237.7l-2,0.9l-2-2.9l0.3-1.9L799.2,237.7z M794.7,227.2l1,5.4l-1.6-0.9l-1.3,0.3l-0.9-1.9l-0.1-5.2
						L794.7,227.2z"/>
					<path class="st6" d="M330.2-60.1l2.5,2.3l-0.4,4.5l-5.1,0.2l-5.2-0.5l-3.8,1.2l-5.6-2.8l-0.1-1.5l4.1-5.6l3.3-1.9l4.3,1.7
						l3.2,0.2L330.2-60.1z"/>
					<path class="st6" d="M-75.1,303.4c10.1-0.2,20.4-0.2,30.6-0.6c0.4,0,0.9,0,1.2,0l0.1-0.3l1.7-0.5l1.6,0.6c0.4,0,0.9,0,1.4,0
						l-0.4-1.9l1.2-8l-1.6-5.1l-2.9-10l-3.3-0.8l-2,0.8l-3-1.2l-2.5-0.2l-8.7,5.2l-5.5,5.2l-2,4.8l-1.9,2.6l-3.3,0.6l-1,3.4
						l-0.6,2.3l-3.9,1.7l-5.1-0.3l-2.9-2l-2.6-0.9l-3,1.7l-1.3,3.1C-88.6,303.6-81.8,303.6-75.1,303.4z"/>
					<path class="st6" d="M-106.7,303.6L-106.7,303.6l-3.6-6.9l-1.6-1.1v7.7C-110.2,303.4-108.4,303.6-106.7,303.6z"/>
					<polygon class="st6" points="444.3,-5.1 437.6,-3.3 434.6,-0.2 434.7,5.8 439.8,8 445,4.6 446.5,0.7 449.2,-2.3 447.8,-5 					
						"/>
					<path class="st6" d="M513.4-79.2C458-79.4,402.9-80,347.6-80.9c-29.8-0.5-59.7-1.1-89.5-1.5l7.1,4.3l2.6-1.9l4.9,2.3l6.2,4.9
						l3.5,1.1l2,3.5l4.8,1.5l5.1,3.2l7,1.7l7.2,0.8l3.8-1.5l0.6,5.9l4.1-5.6l3.3-1.9l4.3,1.7l3.2,0.2l2.8,2l4.9-0.9l5.6-5.6l7.1-4.8
						l5.2,1.9l4.3-3.1l2.9,4.6l-2,3.1l6.7,1.1l3.6-0.6l2,4.3l2.8,1.7l0.1,5.6l-0.3,6l-5.8,6l-0.7,8.5l6.5-1.2l1.4,6.5l3.9,1.4
						l-1.7,5.9l4.6,2.6l2.6,1.2l4.5-2l0.2,3l0.6,1.7l3.3,0.2l-0.9-8l3.2-1.1l3.3-1.7h4.9l5.9-0.8l5.2-3.7l3,2.6l5.6,1.2l-1,4
						l2.9,2.9l6.2,1.9l2.9-1.1l8.3,2.3l-1.4,2.8l1.6,5.1l3.5-0.5l2.2-7.4l5.9-0.8l8.5-3.5l3.5-3.5l2.2,2.3l3.8-3.1l7-0.8l8.5-6
						l8.4-6.6l5.8-8.6l4.9-9.6l4.5-8l3.5-0.6l1.7-5.9l1-6.2l-3.6-2.3L513.4-79.2z"/>
					<path class="st6" d="M-47.2,136.1l2.5,3.7l-0.3,3.9l-1.7,0.8L-50,144l-1.9,3.7l-3.8-0.5l0.6-3.5l0.9-0.5l0.3-3.9l1.7-1.9
						l1.4,0.6L-47.2,136.1z"/>
					<path class="st6" d="M413.6,34.7l2-3.1l0.3-5.7L411,20l-0.4-6.8L406,7.6l-4.6-0.5L400,9.5l-3.6,0.2l-1.9-1.2l-6.5,4l-0.1-6.2
						l1.4-7.3l-4.2-0.3l-0.3-4.2l-2.6-2.2l1.3-2.6l5.2-4.5l0.6,1.7l3.3,0.2l-0.9-8l3.2-1.1l3.6,5.6l2.8,6.3h7.5l2.3,6l-3.9,1.9
						l-1.7,2.5l7.4,4.2l5.1,8.2l3.9,6l4.6,4.8l1.6,4.8l-1.2,6.8l-5.5-2.5l-2.8,4.6L413.6,34.7z"/>
					<path class="st6" d="M-47.6,233.7l5.1-0.2l2.9,1.4l1.3,1.7l2.9,0.5l3.2,2.3v8.6l-1.2,4.8l-0.3,5.1l1,2l-0.7,4l-0.9,0.6
						l-1.6,5.1l-6.5,8l2.9,10l1.6,5.1l-1.2,8l0.4,1.9c1.6,0,3.2,0,4.8,0.2v-0.3l2.8-2.6l7.4-3.9l5.1-2.5l2.6-2.6l0.9-2.9l-1.4-1.2
						l1-3.2l0.1-6.9l-1.2,0.3l-0.1-2.2l-1.2-4.2l-2.9-5.2l0.6-4.9l2.6-1.5l4.3-4.9l2.3-1.2l7-7.4l7-3.2l5.6-2.6l3.9-4.2l2.5-4.6
						l1.9-4.8l-1-3.2L15.5,212l-0.7-5.9l0.3-6.6l-1-2.9l-4.9,3.9l-6.8,2.6l-3.8-0.2l-2.2,2l-4.3,0.2l-1.6,0.8l-7.4-1.9l-4.6,0.5
						l-1.7,5.1l1.7,8.6l2.2-0.2l2.2,2.2l2.6,4.9l0.6,8.6l-2.6,1.4l-1.9,4.8l-4.1-4.2L-23,231l1.3-3.1l-0.3-2.8l-2.5-1.7l-2,0.5
						l-3.5-3.2l-18.7,5.6l0.6,4.8L-47.6,233.7z"/>
					<path class="st6" d="M308.2-60.8l-0.4,3.2l0.9,4.6l-0.7,2.9l-5.1,0.2l-7.4-1.7l-4.8-0.6l-3.6-3.7l-8.4-0.9l-8-4.2l-5.8-3.7
						l-6.1-2.9l2.5-6.9l3.9-3.4l2.6-1.9l4.9,2.3l6.2,4.9l3.5,1.1l2,3.5l4.8,1.5l5.1,3.2l7,1.7L308.2-60.8z"/>
					<path class="st6" d="M30.9,45.2l1.4,2L32.2,50l-3.5,1.5l2.6,1.9L29,56.9l-1.3-1.2l-1.4,0.5L22.8,56l-0.1-2l-0.4-1.9l2-3.1
						l2.2-2.9l2.6,0.6L30.9,45.2z"/>
					<path class="st6" d="M725.5,173.3l-1.7,0.6l-2.6-2.5l-2.8-4.2l-1.3-4.9l0.9-0.6l0.7,2l1.9,1.5l3,4.2l2.9,2.2L725.5,173.3z
						 M701.6,164.5l-3.2,0.5l-1,1.9l-3.3,1.5l-3.2,1.5h-3.3l-5.1-1.9l-3.5-1.9l0.6-2l5.5,0.9l3.3-0.5l0.9-3.1l0.9-0.2l0.6,3.5
						l3.5-0.5l1.7-2.3l3.5-2.3l-0.7-3.9l3.6-0.2l1.3,1.1l-0.1,3.7L701.6,164.5z M672.1,177l5.5,4.3l4.1,6.9l3.5-0.2l-0.3,2.9
						l4.8,1.1l-1.9,1.2l6.5,2.8l-0.7,1.9l-4.1,0.5l-1.4-1.7l-5.4-0.8l-6.2-0.9l-4.8-4.2l-3.5-3.7l-3.2-5.7l-8-2.9l-5.2,1.9l-3.8,2.2
						l0.7,4.9l-4.8,2.3l-3.5-1.1l-6.4-0.3l0-21.4l-0.1-21.3l10.7,4.5l11.4,3.7l4.2,3.4l3.5,3.2l0.9,3.9l10.3,4l1.4,3.5l-5.6,0.8
						L672.1,177z M708.7,158l-1.9,1.7l-1.2-3.9l-1.4-2.5l-2.8-2.2l-3.5-2.8l-4.5-1.9l1.7-1.5l3.3,1.9l2,1.4l2.6,1.5l2.5,2.8l2.3,2.2
						L708.7,158z"/>
					<path class="st6" d="M-21.7,204.3l-1.7,5.1l1.7,8.6l2.2-0.2l2.2,2.2l2.6,4.9l0.6,8.6l-2.6,1.4l-1.9,4.8l-4.1-4.2l-0.4-4.8
						l1.3-3.1l-0.3-2.8l-2.5-1.7l-1.9,0.6l-3.5-3.2l-3.2-1.7l1.9-6.2l1.9-2.3l-1.2-5.6l1.3-5.4l1-1.9l-1.6-5.6l-2.9-2.9l6.1,1.2
						l1.3,1.9l2,3.1L-21.7,204.3z"/>
					<path class="st6" d="M468.9,99.2l2.5-2.5l5.2-3.5l-0.3,3.2l-0.3,4.2l-2.9-0.2l-1.3,2.2L468.9,99.2z"/>
					<path class="st6" d="M-148.4,46.7l-4.1-7.3l-1.4-0.3l-4.8,3.7l-4.8-2l-0.7-0.2c0,14.5-0.1,29-0.3,43.4l2.3-1.2l0.6-2.8l1.4-2.6
						l1-3.4l3.3-2.8l1.3-4.6l1.3-1.5l0.9-3.4l1.3-3.9l5.2-5.1l0.3-2.2l0.7-1.2l-2.5-2.6C-147.4,46.7-148.4,46.7-148.4,46.7z"/>
					<path class="st6" d="M402.9,58.9l-2.5-3.4l-3.2-6.9l-1.4-8l3.9-5.6l8-1.2l5.8,0.9l5.1,2.6l2.8-4.6l5.5,2.5l1.4,4.5l-0.7,8
						l-10.3,5.1l2.8,4l-6.5,0.5l-5.4,2.6L402.9,58.9z"/>
					<path class="st6" d="M-145.2,44.1l0.6-3.1l-3.9-0.2v-4.3l-2.6-2.5l2.6-9l8-6.5l0.3-9l2.3-14l1.3-2.9l-2.6-2.3l-0.1-2.2
						l-2.3-1.9l-1.4-11l6.2-3.9l24.6,13.6l24.6,13.3l0.3,27.2l-5.4-0.5l-2.8,4.9l-1.6,4.2l1.3,1.5l-2,2l0.7,2.8l-1.7,2.9l-0.6,2.5
						l2.2-0.5l1.3,2.6V52l2.3,2l-0.1,1.5l-3.9,1.1l-3.2,2.6l-4.5,7.3l-5.8,3.1l-5.9-0.5l-1.7,0.6l0.6,2.3l-3.2,2.3l-2.6,2.6
						l-7.8,2.5l-1.6-1.5l-1-0.2l-1.2,1.7l-5.1,0.5l1.3-1.5l-1.9-4.5l-1-2.8L-145,70l-3.6-3.9l1.3-3.1l2.8,0.6l1.7-0.5h3.5l-3.2-6
						l0.3-4.5l-0.4-4.5L-145.2,44.1z"/>
					<path class="st6" d="M-140.4,80.2l5.1-0.5l1.2-1.7l1,0.2l1.6,1.5l7.8-2.5l2.6-2.6l3.2-2.3l-0.6-2.3l1.7-0.6l5.9,0.5l5.8-3.1
						l4.5-7.3l3.2-2.6l3.9-1.1l0.7,2.8l3.6,4.2v2.6l-1.3,2.6l0.4,2l2.2,1.9l4.6,2.9l3.3,2.6v2.2l4.2,3.4l2.6,2.8l1.6,4l4.6,2.6l1,2
						l-2,0.6l-3.9-0.2l-4.6-0.6l-2.3,0.6l-0.9,1.5l-2,0.2l-2.5-1.4l-6.8,3.2l-2.8-0.6l-0.9,0.5l-1.9,4l-4.6-1.2l-4.5-0.6l-3.9-2.5
						l-5.1-2.2l-3.3,2.2l-2.5,3.4l-0.6,4.6l-3.9-0.3l-4.2-1.1l-3.6,3.4l-3.2,6l-0.6-1.9l-0.3-2.9l-2.8-2.2l-2.5-3.5l-0.6-2.3
						l-2.9-3.4l0.4-2l-0.6-2.8l0.4-5.1l1.4-1.2L-140.4,80.2z"/>
					<path class="st6" d="M-25.3,66.7l0.1,5.1l-0.9,2l-3.3,0.2l-2,3.7l3.8,0.5l3.2,3.2l1,2.6l2.8,1.5l3.6,7.1l-4.2,4.3l-3.8,3.9
						l-3.8,2.9h-4.3l-4.9,1.5l-3.9-1.4l-2.6,1.9l-5.4-4.3l-1.4-2.8l-3.5,1.4l-2.9-0.5l-1.6,1.1l-2.8-0.8l-3.8-5.4l-1-2l-4.6-2.6
						l-1.6-4l-2.6-2.8l-4.2-3.4v-2.2l-3.3-2.6l-4.2-2.6l1.9-0.8l2.2-1.2l1.6-5.9l1.7-3.1l4.5-0.9l1,1.9l3.2,3.9l1.7,0.6l2.2-1.1
						l4.5,0.2l0.9,1.4h6.1l0.1-1.4l3.2-1.2l0.6-2l2.3-1.4l5.2,3.9l3.2-0.6l3-4.8L-35,56l-0.6-4l-1.4-2l3.8-0.3l0.4-1.5l2.9,0.5
						l-0.9,5.1l0.7,4.8l3.2,2.6l0.7,2.3v3.2L-25.3,66.7z"/>
					<path class="st6" d="M-1.1,30.1l3.8,3.1l3.6-1.5L7.7,33l4.2,0.2l5.4,2.6l1.6,2.3l2.8,2.2l2.5,3.9l2.2,2.2l-2.2,2.9l-2,3.1
						l0.4,1.9l0.1,2l3.5,0.2l1.4-0.5l1.3,1.2l-1.3,2.3l2.3,3.7l2.3,3.2l2.3,2.3l20.1,7.9h5.2L42.5,96.3l-8,0.3l-5.5,4.6l-3.9,0.2
						l-1.7,2h-4.2l-2.5-2.2L11,104l-1.9,2.8L5,106.3l-1.3-0.8l-1.4,0.2H0.5l-7.8-5.6h-4.3l-2.2-2.2v-3.7l-3.2-1.1l-3.6-7.1l-2.8-1.5
						l-1-2.6l-3.2-3.2l-3.8-0.5l2-3.7l3.3-0.2l0.9-2l-0.1-5.9l1.9-6.9l2.9-1.9l0.6-2.8l2.6-5.1l3.8-3.2l2.5-6.6l1-5.7l7.2,1.4
						L-1.1,30.1z"/>
					<path class="st6" d="M465.9,297.2l0.6,1.1c7.1-3.4,16.5-2.5,23.9-1.9c9.6,0.8,19.1,1.9,28.7,2c15.6,0.2,31.1,0.5,46.8,0.8
						c28.8,0.6,57.6-0.2,86.6-0.8c18.2-0.3,36.5-0.5,54.7,1.1l-0.1-0.3l-4.8-5.9l-2.9-2.8l-4.3-4.3l-1-7.6l-1.4,1.1l-2.5-3.1
						l-2.5,1.5l-2.5-7.6l-3.5-4.3l0.9-1.7l-4.2-3.1l-4.3-3.2l-6.7-3.5l-2-4.6l0.6-3.5l-1.7-5.9l-1.6-0.8l-0.9-3.4l-1.3-5.9l0.6-2.9
						l-2.9-2.6l-2-2.8l-3.9,2.5l-2.3-5.6l0.1-2.5l-0.4-3.9l-2.2-3.4l-0.3-2.8l-1.6-0.8l-0.4-4.2l-1.7-3.2l-2.3,2.5l-0.1,1.9
						l-1.2,3.7l-1.4,3.5l1,2.2l-1.2,1.4l-0.9,5.1l0.7,3.9l-0.4,2l0.9,3.2l-1.9,5.4l-0.7,3.7l-1.3,3.1l-1.2,3.7l-4.1,2.3l-5.9-2.3
						l-0.9-2.2l-3.2-1.7h-1.7l-4.5-4l-3.2-2.3l-4.8-2.2l-4.9-3.7l-0.4-1.9l2.2-3.2l1.7-3.4l-0.7-2.6l2.2-0.2l2.3-2.8l1.6-3.5l-3.2-3
						l-1.4,1.2l-2.3-0.6l-3.6,1.9l-3.8-2l-1.7,0.6l-5.2-1.7l-3.3-2.8l-4.1-1.7l-3.3,0.9l4.5,2.2l0.1,3.4l-5.2,1.2l-3.2-0.8l-3.8,2.3
						l-2.6,3.9l1,1.7l-2.8,1.7l-2.9,5.4l1.3,3.7l-3.9-0.6h-3.9l-3.5-4l-4.5-3.1l-3,0.9l-2.8,0.9l-0.1,1.7l-2.8-0.8l-0.1,1.9l-3,1.1
						l-1.4,2.6l-3.3,3.4l-0.7,5.1l-2.8-1.5l-1.9,3.2l2.2,3.2l-2.6,1.4L523,237l-4.3,5.9l-0.1,3.7l-0.3,2.8l-3.6,3.5l-1.6,3.7
						l-3.3,3.1l-6.5,2l-3.5-0.2l-1.6,0.6l-0.9,1.5l-3.8,0.8l-4.9,2.6l-1.7-0.9l-2.8,0.6l-4.8,2.6l-3,2.9l-5.1,2.3l-2.6,4.8l-0.4-5.4
						l-2.6,5.1l0.7,4.2l-0.9,3.5l-1.3,1.7l-0.7,4.2l1.4,2.2L465.9,297.2z"/>
					<path class="st6" d="M80.4,51.5l-0.1-1.9H78L75,52l-3.3,0.6l-2.9,0.9l-2,0.2L63.3,54l-2.2,1.2l-3,0.5l-5.4,2L46,58.5l-5.8,1.7
						h-3l-2.8-2.8l-1.2-2.8l-2-1.2L29,56.9l-1.3,2.3l2.3,3.7l2.3,3.2l2.3,2.3l20.1,7.9H60L42.6,96.1l-8,0.3l-5.5,4.6l-3.9,0.2
						l-1.7,2l-5.4,7.4l0.1,23.8l3.6,5.4l1.4-1.5l1.4-3.4l6.8-7.9l5.8-4.9l9.3-6.5l6.2-5.2l7.2-9l5.2-7.3l5.2-9.6l3.8-8.3l2.9-7.4
						l1.7-7.1l1.3-2.5v-3.5L80.4,51.5z"/>
					<path class="st6" d="M365.4-60.8l-0.4-2.8l-6.7-1.1l2-3.1l-2.9-4.6l-4.3,3.1l-5.2-1.9l-7.1,4.8l-5.6,5.6l-4.9,0.8l2.5,2.3
						l-0.4,4.5l-5.1,0.2l-5.2-0.5l-3.8,1.2l-5.6-2.8l-0.1-1.5l-0.6-5.9l-4,1.5l-0.4,3.2l0.9,4.6l-0.7,2.9l-5.1,0.2l-7.4-1.7
						l-4.8-0.6l-3.6-3.7l-8.4-0.9l-8-4.2l-5.8-3.7l-5.9-2.8l2.5-6.9l3.9-3.4l-8.5-5.2l-6.1-4.8l-1.3-6.5c-7,0-13.9,0-20.7,0.2
						l0.6,0.5l-5.2,4.5l0,5.3l-5.9,7.6l-3.9,7.6l-6.4,7.7l-7.4-0.5l-6.8,7.7l4.1,3.2l0.7,5.6l3.5,3.7l1.2,6.2h-13.6l-4.1,4.8l7.2,6
						l1.9,2.8l-2.9,2.6l8.1,8.5l4.3,0.8l9-4.2l1.2,6.5v8.3l1.9,8.8l2.6,13.3l5.6,9.3l1,4.2l1.6,8.3l3.3,6.5l2.2,3.1l2.3,6.6l2.9,9.3
						l5.8,6.2l2.5-1.9l2-4.5l5.6-1.9l-1.9-2.2l2.8-5.1l3.2-0.3V49.4l2.6-6.3l-0.3-5.6l-1.3-8.8l1.9-5.1l2.9-0.3l5.5-2.5l3-1.7V16
						l6.1-4.5l4.6-4.3l7-8.2l8.8-4.6l3.3-4.2l-0.3-5.2l7.5-1.4l4.2,0.2l0.9-2.6l-1-5.9l-2.2-5.4l1-4.3l-3.8-1.9l1.3-2.6l3.9-2.6
						l-4.5-3.9l2.2-4.9l4.9,3.1l2.9,0.3l0.6,5.1l5.8,0.9l5.6-0.2l3.6,1.2l-2.9,6l-2.8,0.5l-1.9,4l3.3,3.7l1-4.5h1.7l3.2,11.3l3-1.7
						l-0.6-2.9l1.4-2.5l0.3-7.4l4.8,1.7l2.8-5.9l0.3-3.5l3.3-6l-0.1-4.2l8-5.1l4.3,1.4l-0.6-4.5L365.4-60.8z"/>
					<path class="st6" d="M378.6-5.7L375-2.6l-4.3,0.3l-2.8,7.4l-2.6,1.2l3,6l3.9,4.9l2.5,4.5l-2.3,5.9l-2.2,1.2l1.4,3.4l4.1,5.4
						l0.7,3.7l-0.1,3.1l2.5,6l-3.3,6.2l-3,6.8l-0.6-4.9l1.9-5.1l-2-4l0.4-7.3l-2.5-3.5l-2-8l-1.2-8.5l-2.6-5.7l-4.1,3.4l-7,4.8
						l-3.5-0.6l-3.8-1.5l2.2-8.5l-1.3-6.5l-4.8-8l0.7-2.5l-3.6-1l-4.3-5.7l-0.4-5.6l2.2,1.1l0.1-5.1l3-1.7l-0.6-2.9l1.4-2.5l0.3-7.4
						l4.8,1.7L348-38l0.3-3.5l3.3-6l-0.1-4.2l8-5.1l4.3,1.4l-0.6-4.5l2.2-1.4l-0.4-2.8l3.6-0.6l2,4.3l2.8,1.7l0.1,5.6l-0.3,6l-5.8,6
						l-0.7,8.5l6.5-1.2l1.4,6.5l3.9,1.4l-1.7,5.9l4.6,2.6l2.6,1.2l4.5-2l0.1,2.9l-5.2,4.5l-1.3,2.6L378.6-5.7z"/>
					<g>
						<polygon class="st8" points="397.5,48.7 392,45.7 386.7,45.8 387.5,40.6 382.2,40.6 381.7,48 378.4,57.7 376.4,63.6 
							376.8,68.4 380.7,68.5 383.3,74.5 384.3,80.2 387.8,83.9 391.6,84.7 394.8,88.1 392.7,90.9 388.7,91.7 388.3,88.3 383.2,85.5 
							382,86.6 379.7,84.1 378.6,80.9 375.4,77.1 372.3,73.9 371.3,77.8 370.2,74.2 370.9,70 372.6,63.7 375.7,56.9 379,50.8 
							376.7,44.6 376.7,41.5 375.9,37.8 371.9,32.4 370.4,29 372.6,27.8 374.8,21.9 372.3,17.4 368.4,12.3 365.4,6.3 368,5.1 
							370.7,-2.3 375.2,-2.6 378.7,-5.7 382.3,-7.3 384.9,-5.1 385.4,-1 389.4,-0.6 388,6.6 388.1,12.8 394.6,8.6 396.4,9.9 
							400,9.7 401.3,7.4 405.9,7.8 410.6,13.4 411,20 415.9,26.1 415.8,31.8 413.7,34.7 407.9,33.8 400,35 396.1,40.7 						"/>
					</g>
					<path class="st6" d="M543.9,73.6l0.6,4.3l0.4,3.7l-2,6l-2.3-6.6l-2.9,3.4l2,4.8l-1.7,3.1l-7.2-3.9l-1.7-4.8l1.9-3.1l-3.9-3.1
						l-1.9,2.8l-2.9-0.3l-4.5,3.7l-1-1.9l2.5-5.6l3.9-1.9l3.3-2.5l2.2,2.9l4.6-1.9l1-2.9l4.3-0.2l-0.4-5.1l4.9,3.1l0.6,3.4
						L543.9,73.6z M529.1,61.3l-2.2,2.2l-1.9,4.2l-1.9,2l-3.8-4.6l1.3-1.7l1.6-1.9l0.7-4.2l3.3-0.5l-1,4.5l4.5-6.5L529.1,61.3z
						 M495.4,67.7l-8.3,6.3l3-4.6l4.5-4l3.8-4.6l3.2-6.6l1.2,5.4l-4.1,3.7L495.4,67.7z M516.1,50.6l3.8,2h3.9l-0.1,2.8l-2.9,2.8
						l-3.9,2l-0.3-3.1l0.4-3.4L516.1,50.6z M538.4,48.7l1.7,7.4l-4.8-1.7l0.1,2.2l1.4,4.2l-2.9,1.5l-0.3-4.6l-1.9-0.3l-1-4l3.6,0.5
						l-0.1-2.5l-3.8-5.1l5.9,0.2L538.4,48.7z M513.9,42.7l-1.6,5.7l-2.6-3.4l-3.2-5.1l5.2,0.3L513.9,42.7z M512.8,5.8l3.8,2l1.9-1.9
						l0.6,1.7l-1,2.8l2.2,4.9l-1.6,5.7l-3.6,2.3l-1,5.4l1.4,5.4l3.3,0.8l2.8-0.8l7.7,3.7l-0.6,3.7l2,1.5l-0.6,3.1l-4.8-3.2l-2.3-3.5
						l-1.6,2.5l-3.9-4l-5.6,0.9l-3-1.5l0.3-2.8l1.9-1.7l-1.9-1.5l-0.7,2.5l-3-3.9l-0.9-2.9l-0.3-6.5l2.5,2.2l0.6-10.6l2-6.2
						L512.8,5.8z"/>
				</g>
			</g>
		</g>
	</g>
	<g>
		<polygon class="st8" points="489,111.2 489.6,115.5 494.5,114.3 497.1,110.9 498.8,111.7 503.5,116.7 506.6,122.1 507.1,127.7 
			506.4,131.6 507.1,134.3 507.7,139.3 510.4,141.4 513.4,148.7 513.3,151.5 507.8,152.1 500.4,145.9 491.3,139.4 490.3,135.3 
			485.8,129.7 484.8,122.9 482,118.4 482.9,112.4 481.2,108.9 482.5,107.5 		"/>
	</g>
	<rect x="393.3" y="22.6" class="st0" width="242.4" height="246.2"/>
	<polygon class="st9" points="42.1,14.8 34.4,32.3 42.1,28.8 48.1,32.3 	"/>
	<g>
		<text transform="matrix(1 0 0 1 36.8704 46.7501)" class="st10 st11 st12">N</text>
	</g>
	<g>
		
			<image style="overflow:visible;enable-background:new    ;" width="797" height="521" xlink:href="mapita-02-02.png"  transform="matrix(0.24 0 0 0.24 802.7247 -1.027)">
		</image>
		<g>
			<text transform="matrix(1 0 0 1 821.1162 61.8694)" class="st11 st13">FRICA</text>
		</g>
		<g>
			<text transform="matrix(1 0 0 1 882.3516 44.0627)" class="st11 st13">ASIA</text>
		</g>
		<g>
			<text transform="matrix(1 0 0 1 866.2363 106.49)" class="st11 st13">OCEANA</text>
		</g>
	</g>
</g>
<g id="zona3">
	<g id="zona3_2_">
		<g id="zona1">
			<pattern  id="SVGID_4_" xlink:href="#SVGID_1_" patternTransform="matrix(1 0 0 1 -63.7 16766.9004)">
			</pattern>
			<polygon class="enrojecido" points="492,107.8 495.6,110.9 493.5,114.1 490,114.4 489,110.3 486.1,109 488.8,106.9 			"/>
			<g>
				<g>
					<text transform="matrix(0.9382 0 0 1 416.6748 102.1216)" class="st10 st15 st16 ">TAILANDIA</text>
				</g>
			</g>
		</g>
	</g>
</g>
<g id="zona2_1_">
	<g id="zona2_2_">
		<g id="zona3_1_">
			<pattern  id="SVGID_5_" xlink:href="#Motivo_nuevo_3" patternTransform="matrix(1 0 0 -1 -31.9 -16062)">
			</pattern>
			<pattern  id="SVGID_6_" xlink:href="#Motivo_nuevo_3" patternTransform="matrix(1 0 0 -1 -31.9 -16062)">
			</pattern>
			<polygon class="enrojecido" points="488.5,113.5 489,117.5 493.8,116 495.5,113.4 496.8,114 500,117.8 502.3,122.1 502.6,126.3 
				502,129.4 502.6,131.7 502.9,135.4 504.8,137.1 501.7,140.5 491.4,135.6 490.9,132.3 487.7,128.2 486.9,122.8 485.1,119.2 
				485.6,114.6 484.5,111.8 485.4,110.7 			"/>
			<g>
				<text transform="matrix(0.9382 0 0 1 509.7578 126.4858)" class="st10 st15 st16">MALASIA</text>
			</g>
		</g>
	</g>
</g>
<g id="zona1_2_">
	<g id="zona1_1_">
		<g id="zona2">
			<pattern  id="SVGID_7_" xlink:href="#SVGID_2_" patternTransform="matrix(1 0 0 1 -109.2 16766.4004)">
			</pattern>
			<polygon class="enrojecido" points="525.8,210.3 517.2,210.4 510.5,203.6 500.7,196.9 497.4,191.9 491.4,185.1 487.5,178.9 
				481.7,167.5 474.9,160.6 472.6,153.6 469.7,147.2 462.8,142.1 458.7,135 452.9,130.3 444.8,121.2 444.1,117.1 449,117.4 
				473.6,142.7 481.3,157.8 495.1,178.8 508.7,190.8 512,194.5 518.1,193.9 526,197.5 			"/>
			<g>
				<text transform="matrix(0.9382 0 0 1 416.8672 201.3369)" class="st10 st15 st16">INDONESIA</text>
			</g>
		</g>
	</g>
</g>
</svg>
