<?xml version="1.0" encoding="utf-8"?>
<!-- Generator: Adobe Illustrator 25.3.1, SVG Export Plug-In . SVG Version: 6.00 Build 0)  -->
<svg version="1.1" id="Capa_1" xmlns="http://www.w3.org/2000/svg" xmlns:xlink="http://www.w3.org/1999/xlink" x="0px" y="0px"
	 viewBox="0 0 589.8 474.4" style="enable-background:new 0 0 589.8 474.4;" xml:space="preserve">
<style type="text/css">
	.st0{fill:none;stroke:#95C11F;stroke-miterlimit:10;stroke-dasharray:1.1664,1.1664;}
	.st1{fill:#95C11F;}
	.st2{fill:#575756;}
	.st3{fill:none;stroke:#575756;stroke-width:1.1881;stroke-linecap:round;stroke-miterlimit:10;stroke-dasharray:0,3.3679;}
	.st4{fill:none;}
	.st5{fill:#1E1E1C;}
	.st6{font-family:'Roboto-Regular', sans-serif;}
	.st7{font-size:9px;}
	.st8{fill:none;stroke:#95C11F;stroke-linecap:round;stroke-miterlimit:10;}
</style>
<image style="overflow:visible;enable-background:new    ;" width="4198" height="3468" xlink:href="5849EF1B688E228.jpg"  transform="matrix(0.13 0 0 0.13 20.7818 0)">
</image>
<g>
	<g>
		<line class="st0" x1="231.8" y1="146.6" x2="451.1" y2="44.2"/>
		<g>
			<polygon class="st1" points="233.8,148.9 227.9,148.4 231.3,143.5 			"/>
		</g>
		<g>
			<polygon class="st1" points="451.6,47.2 455,42.4 449.1,41.9 			"/>
		</g>
	</g>
</g>
<path class="st2" d="M36.4,386.5"/>
<path class="st3" d="M477.8,276.9"/>
<g>
	<rect x="37.8" y="433.8" class="st4" width="97.1" height="32.1"/>
	<text transform="matrix(1 0 0 1 46.3741 440.0615)" class="st5 st6 st7">Mechón de pelo en área </text>
	<text transform="matrix(1 0 0 1 41.8441 450.7515)" class="st5 st6 st7">genital sólo presente en el </text>
	<text transform="matrix(1 0 0 1 74.7641 461.4515)" class="st5 st6 st7">macho </text>
</g>
<g>
	<rect x="197.9" y="447.2" class="st4" width="99.8" height="24"/>
	<rect x="201.4" y="445.7" class="st4" width="112.2" height="10.1"/>
	<text transform="matrix(1 0 0 1 201.3507 453.3844)" class="st5 st6 st7">Generalmente la hembra es </text>
	<rect x="201.5" y="456.4" class="st4" width="109.7" height="10.1"/>
	<text transform="matrix(1 0 0 1 201.4907 464.0744)" class="st5 st6 st7">mas pequeña que el macho</text>
</g>
<g>
	<rect x="404.9" y="443.7" class="st4" width="92.4" height="14.2"/>
	<text transform="matrix(1 0 0 1 421.958 449.9199)" class="st5 st6 st7">Primates sin cola</text>
</g>
<g>
	<text transform="matrix(0.9077 -0.4195 0.4195 0.9077 275.1941 107.1051)" class="st5 st6 st7">Largo de brazo: hasta 1,5 metros</text>
	<text transform="matrix(0.9077 -0.4195 0.4195 0.9077 279.6792 116.8085)" class="st5 st6 st7">(doble de tamaño que las piernas) </text>
</g>
<g>
	<g>
		<line class="st8" x1="254.4" y1="437.6" x2="254.4" y2="412.5"/>
		<g>
			<path class="st1" d="M256.3,412.6c0-1-0.8-1.9-1.9-1.9s-1.9,0.8-1.9,1.9c0,1,0.8,1.9,1.9,1.9S256.3,413.6,256.3,412.6z"/>
		</g>
	</g>
</g>
<g>
	<g>
		<line class="st8" x1="96.6" y1="425.2" x2="96.6" y2="389.3"/>
		<g>
			<path class="st1" d="M98.4,389.4c0-1-0.8-1.9-1.9-1.9s-1.9,0.8-1.9,1.9s0.8,1.9,1.9,1.9S98.4,390.5,98.4,389.4z"/>
		</g>
	</g>
</g>
<g>
	<g>
		<line class="st8" x1="456" y1="432.6" x2="455.5" y2="372.5"/>
		<g>
			<path class="st1" d="M457.4,372.6c0-1-0.9-1.9-1.9-1.9c-1,0-1.9,0.9-1.9,1.9c0,1,0.9,1.9,1.9,1.9S457.4,373.6,457.4,372.6z"/>
		</g>
	</g>
</g>
</svg>
